<?xml version="1.0" encoding="utf-8"?>
<svg width="473" height="153" viewBox="0 0 382.056 153" fill="none" xmlns="http://www.w3.org/2000/svg">
  <path fill-rule="evenodd" clip-rule="evenodd" d="M 92.336 21.217 L 88.378 21.217 L 88.378 18.047 C 88.378 14.009 85.143 10.757 81.185 10.757 C 77.201 10.757 73.992 14.036 73.992 18.047 L 73.992 21.217 L 66.665 21.217 L 66.665 21.245 L 62.039 21.245 C 58.188 21.245 55.086 24.415 55.086 28.29 C 55.086 32.193 58.215 35.336 62.039 35.336 L 66.665 35.336 L 66.665 35.363 L 92.229 35.363 C 100.225 35.363 106.696 41.921 106.696 50.024 L 106.696 50.051 C 106.696 57.937 100.545 64.522 92.817 64.685 C 91.4 64.712 87.122 64.685 87.122 64.685 L 86.961 64.685 C 82.709 64.793 79.313 68.506 79.768 72.95 C 80.169 76.825 83.592 79.671 87.442 79.671 L 102.043 79.671 C 103.54 79.671 105.065 79.779 106.509 80.159 C 114.344 82.245 120.147 89.454 120.147 98.071 C 120.147 108.288 111.964 116.58 101.882 116.58 L 49.524 116.58 C 45.62 116.58 42.143 119.48 41.769 123.409 C 41.341 127.908 44.844 131.702 49.203 131.702 L 73.992 131.702 L 73.992 134.954 C 73.992 138.991 77.227 142.243 81.185 142.243 C 85.169 142.243 88.378 138.964 88.378 134.954 L 88.378 131.702 L 102.524 131.702 C 120.788 131.702 135.576 116.689 135.576 98.207 C 135.603 84.495 127.42 72.679 115.734 67.53 C 119.157 62.734 121.189 56.853 121.189 50.458 C 121.189 34.306 108.274 21.217 92.336 21.217 Z M 183.117 55.569 C 183.09 55.569 183.064 55.569 183.064 55.541 C 183 55.541 182.953 55.524 182.897 55.504 C 182.882 55.499 182.866 55.493 182.849 55.487 C 182.796 55.487 182.715 55.487 182.662 55.46 L 182.528 55.46 C 180.895 55.325 177.119 55.325 175.137 55.569 L 175.137 55.596 C 171.415 56.002 167.345 57.276 164.507 59.444 C 163.275 60.392 162.15 61.422 161.133 62.533 C 161.026 58.712 157.973 55.65 154.17 55.65 C 150.315 55.65 147.208 58.821 147.208 62.696 L 147.208 124.187 C 147.208 125.162 147.396 126.084 147.771 126.951 C 148.842 129.498 151.332 131.287 154.224 131.287 C 158.08 131.287 161.213 128.116 161.213 124.214 L 161.213 90.663 C 161.213 84.43 162.873 79.281 166.167 75.379 C 168.871 72.181 171.871 70.338 175.271 69.796 C 176.958 69.579 178.672 69.634 178.672 69.634 L 182.1 69.634 C 185.956 69.634 189.089 66.463 189.089 62.56 C 189.062 58.983 186.491 56.083 183.117 55.569 Z M 339.751 114.769 L 369.196 66.946 C 369.361 66.695 369.478 66.428 369.597 66.157 C 369.632 66.078 369.666 65.999 369.702 65.921 C 369.702 65.914 369.704 65.907 369.706 65.9 C 369.708 65.896 369.71 65.892 369.712 65.888 L 369.716 65.88 C 369.722 65.867 369.729 65.853 369.729 65.84 C 369.835 65.57 369.915 65.3 369.968 65.03 C 369.978 64.99 369.989 64.95 370 64.91 L 370.017 64.851 L 370.028 64.814 C 370.069 64.67 370.11 64.526 370.128 64.382 C 370.155 64.301 370.155 64.193 370.155 64.112 C 370.208 63.788 370.261 63.465 370.261 63.114 C 370.261 59.281 367.173 56.151 363.392 56.151 L 327.051 56.151 C 323.457 56.151 320.262 58.823 319.916 62.439 C 319.517 66.595 322.738 70.077 326.758 70.077 L 348.856 70.077 C 349.814 70.077 350.373 71.129 349.894 71.939 L 320.635 119.438 C 320.511 119.654 320.41 119.87 320.309 120.086 L 320.261 120.19 C 320.227 120.263 320.192 120.336 320.156 120.41 C 319.676 121.354 319.384 122.407 319.384 123.54 C 319.384 127.373 322.445 130.503 326.252 130.503 L 366.028 130.503 C 369.809 130.503 372.897 127.373 372.897 123.54 C 372.924 119.762 369.835 116.631 366.055 116.631 L 340.789 116.631 C 339.83 116.631 339.271 115.579 339.751 114.769 Z M 31.285 90.588 C 27.218 90.588 23.896 93.905 23.896 98.023 C 23.896 102.115 27.192 105.459 31.285 105.459 L 77.775 105.459 C 81.842 105.432 85.165 102.115 85.165 98.023 C 85.165 93.931 81.869 90.588 77.775 90.588 L 31.285 90.588 Z M 57.244 72.195 C 57.244 68.103 53.929 64.76 49.813 64.76 L 16.589 64.76 C 12.5 64.76 9.159 68.077 9.159 72.195 C 9.159 76.287 12.473 79.631 16.589 79.631 L 49.813 79.631 C 53.929 79.631 57.244 76.287 57.244 72.195 Z M 83.614 50.281 C 83.614 46.189 80.3 42.845 76.183 42.845 L 42.96 42.845 C 38.87 42.845 35.529 46.162 35.529 50.281 C 35.529 54.373 38.844 57.716 42.96 57.716 L 76.183 57.716 C 80.273 57.716 83.614 54.4 83.614 50.281 Z M 220.995 55.367 C 213.103 55.367 206.258 58.367 200.648 64.285 C 195.037 70.177 192.192 77.258 192.192 85.366 L 192.192 101.311 C 192.192 110.446 195.225 117.96 201.185 123.581 C 207.117 129.202 214.848 132.067 224.19 132.067 C 230.578 132.067 236.028 130.797 240.376 128.257 C 243.356 126.527 245.289 124.905 246.336 123.23 C 246.497 122.986 246.658 122.743 246.792 122.473 C 246.811 122.416 246.843 122.36 246.869 122.313 C 246.881 122.292 246.891 122.273 246.9 122.257 C 247.007 122.068 247.087 121.851 247.141 121.635 C 247.146 121.621 247.15 121.608 247.155 121.595 L 247.165 121.568 L 247.174 121.546 L 247.181 121.527 L 247.189 121.508 C 247.194 121.496 247.198 121.484 247.203 121.471 C 247.209 121.455 247.215 121.438 247.222 121.419 C 247.302 121.149 247.383 120.851 247.436 120.554 C 247.436 120.5 247.436 120.473 247.463 120.419 C 247.49 120.176 247.517 119.905 247.517 119.662 L 247.517 119.419 C 247.517 119.068 247.49 118.689 247.41 118.338 C 247.383 118.203 247.356 118.095 247.302 117.96 C 247.275 117.851 247.248 117.743 247.222 117.608 C 247.195 117.554 247.168 117.5 247.168 117.446 C 246.309 114.879 243.92 113.041 241.101 113.041 L 240.994 113.041 C 240.699 113.041 240.403 113.068 240.135 113.122 C 240.124 113.122 240.112 113.123 240.099 113.125 C 240.091 113.126 240.083 113.127 240.075 113.129 C 240.07 113.13 240.065 113.131 240.06 113.132 L 240.041 113.135 L 240.022 113.139 C 240.015 113.141 240.007 113.142 239.999 113.143 C 239.991 113.145 239.983 113.146 239.975 113.147 C 239.965 113.148 239.956 113.149 239.947 113.149 C 239.652 113.203 239.383 113.284 239.115 113.392 C 239.061 113.419 239.007 113.446 238.954 113.446 L 238.229 113.771 C 238.216 113.784 238.195 113.791 238.175 113.798 C 238.155 113.804 238.135 113.811 238.122 113.825 C 237.88 113.96 237.612 114.122 237.37 114.284 C 237.343 114.298 237.316 114.318 237.289 114.338 C 237.262 114.358 237.236 114.379 237.209 114.392 C 237.088 114.473 236.974 114.554 236.86 114.635 C 236.746 114.716 236.632 114.798 236.511 114.879 C 234.471 116.446 231.545 117.77 228.995 118.365 C 227.572 118.635 226.015 118.797 224.565 118.797 C 219.116 118.797 214.633 117.23 211.224 114.122 C 207.815 111.014 206.177 106.933 206.177 101.69 L 206.177 99.663 C 206.177 98.987 206.714 98.447 207.385 98.447 L 240.323 98.447 C 244.913 98.447 248.644 94.69 248.644 90.068 C 248.644 90.068 248.993 84.366 248.671 81.231 L 248.671 81.177 C 248.027 74.312 245.316 68.448 240.564 63.664 C 235.088 58.151 228.485 55.367 220.995 55.367 Z M 208.889 86.447 C 207.413 86.447 206.205 85.231 206.205 83.745 L 206.205 83.069 C 206.205 78.718 207.628 75.15 210.554 72.178 C 213.48 69.205 216.835 67.772 220.862 67.772 C 224.942 67.772 228.297 69.313 231.116 72.502 C 233.961 75.745 235.357 78.556 235.357 82.853 L 235.357 83.799 C 235.357 85.285 234.149 86.474 232.673 86.474 L 208.889 86.447 Z M 313.818 81.177 C 313.174 74.312 310.463 68.448 305.712 63.664 C 300.235 58.151 293.632 55.367 286.142 55.367 C 278.25 55.367 271.405 58.367 265.795 64.285 C 260.184 70.177 257.339 77.258 257.339 85.366 L 257.339 101.311 C 257.339 110.446 260.372 117.96 266.332 123.581 C 272.264 129.202 279.995 132.067 289.337 132.067 C 295.726 132.067 301.175 130.797 305.524 128.257 C 308.503 126.527 310.436 124.905 311.483 123.23 L 311.483 123.229 C 311.644 122.986 311.805 122.743 311.939 122.473 C 311.958 122.416 311.99 122.36 312.016 122.313 C 312.028 122.292 312.039 122.273 312.047 122.257 C 312.154 122.068 312.235 121.851 312.288 121.635 C 312.302 121.595 312.315 121.561 312.329 121.527 C 312.342 121.493 312.355 121.459 312.369 121.419 C 312.449 121.149 312.53 120.851 312.584 120.554 C 312.584 120.5 312.584 120.473 312.61 120.419 C 312.637 120.176 312.664 119.905 312.664 119.662 L 312.664 119.419 C 312.664 119.068 312.637 118.689 312.557 118.338 C 312.53 118.203 312.503 118.095 312.449 117.96 C 312.422 117.851 312.396 117.743 312.369 117.608 C 312.342 117.554 312.315 117.5 312.315 117.446 C 311.456 114.879 309.067 113.041 306.248 113.041 L 306.141 113.041 C 305.846 113.041 305.55 113.068 305.282 113.122 C 305.255 113.122 305.222 113.129 305.188 113.135 C 305.155 113.142 305.121 113.149 305.094 113.149 C 304.799 113.203 304.53 113.284 304.262 113.392 C 304.208 113.419 304.155 113.446 304.101 113.446 L 303.376 113.771 C 303.37 113.777 303.362 113.782 303.353 113.786 C 303.343 113.791 303.333 113.794 303.322 113.798 C 303.302 113.804 303.282 113.811 303.269 113.825 C 303.027 113.96 302.759 114.122 302.517 114.284 C 302.501 114.292 302.485 114.303 302.469 114.314 C 302.458 114.322 302.447 114.33 302.437 114.338 C 302.41 114.358 302.383 114.379 302.356 114.392 C 302.236 114.473 302.123 114.553 302.01 114.634 L 302.009 114.634 L 302.007 114.635 C 301.893 114.716 301.779 114.798 301.658 114.879 C 299.618 116.446 296.692 117.77 294.142 118.365 C 292.719 118.635 291.162 118.797 289.713 118.797 C 284.263 118.797 279.78 117.23 276.371 114.122 C 272.962 111.014 271.325 106.933 271.325 101.69 L 271.325 99.663 C 271.325 98.987 271.861 98.447 272.533 98.447 L 305.47 98.447 C 310.06 98.447 313.792 94.69 313.792 90.069 C 313.792 90.069 314.14 84.366 313.818 81.231 L 313.818 81.177 Z M 300.504 83.799 C 300.504 85.285 299.297 86.474 297.82 86.474 L 274.037 86.447 C 272.56 86.447 271.352 85.231 271.352 83.745 L 271.352 83.069 C 271.352 78.718 272.775 75.15 275.701 72.178 C 278.627 69.205 281.982 67.772 286.009 67.772 C 290.089 67.772 293.445 69.313 296.263 72.502 C 299.109 75.745 300.504 78.556 300.504 82.853 L 300.504 83.799 Z" style="fill: rgb(255, 255, 255);"/>
</svg>