<svg width="164" height="48" viewBox="0 0 164 48" fill="none" xmlns="http://www.w3.org/2000/svg">
<g clip-path="url(#clip0_1580_14561)">
<rect x="0.656372" width="162.545" height="48" rx="6" fill="#0085FB"/>
<path d="M38.5821 22.8781C38.5512 19.1866 41.6093 17.3873 41.7517 17.3069C40.0183 14.7841 37.3316 14.4378 36.3844 14.4131C34.1249 14.1782 31.9396 15.7611 30.7882 15.7611C29.6182 15.7611 27.8476 14.4378 25.9348 14.475C23.4771 14.512 21.1804 15.9342 19.9237 18.1355C17.3236 22.6308 19.2613 29.2345 21.7561 32.8703C23.0004 34.6511 24.4552 36.636 26.3619 36.5679C28.2252 36.4937 28.9248 35.3807 31.172 35.3807C33.4006 35.3807 34.0568 36.5679 36.0006 36.5246C38.0002 36.4937 39.2631 34.7376 40.464 32.9445C41.9065 30.904 42.4822 28.8944 42.507 28.7955C42.4574 28.7646 38.6193 27.2992 38.5821 22.8781ZM34.9111 12.0202C35.9139 10.765 36.6011 9.06455 36.4092 7.33322C34.9606 7.39502 33.1406 8.33489 32.1005 9.55922C31.1782 10.6413 30.3486 12.4097 30.5653 14.073C32.1872 14.1905 33.8649 13.2506 34.9111 12.0202Z" fill="white"/>
<path d="M65.5843 36.3021H62.9781L61.5481 31.8254H56.5894L55.2274 36.3021H52.6893L57.6046 21.0541H60.638L65.5843 36.3021ZM61.1209 29.9457L59.827 25.9637C59.6909 25.5555 59.4309 24.5971 59.0594 23.0884H59.0161C58.8675 23.7377 58.6199 24.6961 58.2918 25.9637L57.0228 29.9457H61.1209ZM78.201 30.6691C78.201 32.5365 77.6931 34.0143 76.6779 35.1026C75.7675 36.0672 74.6348 36.5495 73.2853 36.5495C71.8242 36.5495 70.7783 36.0301 70.1409 34.9913V40.7603H67.6954V28.9193C67.6954 27.7445 67.6647 26.5387 67.6026 25.3082H69.7564L69.8933 27.0519H69.936C70.7536 25.7411 71.9917 25.0794 73.6504 25.0794C74.9506 25.0794 76.0338 25.5927 76.9008 26.6191C77.7672 27.6455 78.201 28.9997 78.201 30.6691ZM75.7121 30.7619C75.7121 29.6922 75.4705 28.808 74.9879 28.1155C74.4613 27.392 73.7498 27.0333 72.8581 27.0333C72.2581 27.0333 71.7067 27.2374 71.2175 27.6331C70.7289 28.0351 70.4065 28.5607 70.2584 29.2037C70.1903 29.4449 70.1529 29.6983 70.1469 29.9457V31.7821C70.1469 32.5798 70.3945 33.2537 70.8838 33.8103C71.3723 34.3606 72.0104 34.6388 72.796 34.6388C73.7184 34.6388 74.4366 34.2802 74.9505 33.5753C75.4518 32.8581 75.7121 31.9243 75.7121 30.7619ZM90.8666 30.6691C90.8666 32.5365 90.3593 34.0143 89.3435 35.1026C88.4337 36.0672 87.3011 36.5495 85.9515 36.5495C84.4904 36.5495 83.4439 36.0301 82.8064 34.9913V40.7603H80.3609V28.9193C80.3609 27.7445 80.3302 26.5387 80.2681 25.3082H82.4227L82.5588 27.0519H82.6022C83.4192 25.7411 84.6573 25.0794 86.3166 25.0794C87.6168 25.0794 88.7 25.5927 89.5664 26.6191C90.4274 27.6455 90.8666 28.9997 90.8666 30.6691ZM88.3716 30.7619C88.3716 29.6922 88.1307 28.808 87.6475 28.1155C87.1215 27.392 86.4093 27.0333 85.5183 27.0333C84.9176 27.0333 84.3663 27.2374 83.871 27.6331C83.3825 28.0351 83.0601 28.5607 82.9119 29.2037C82.8371 29.5067 82.7944 29.754 82.7944 29.9457V31.7821C82.7944 32.5798 83.0421 33.2537 83.5306 33.8103C84.0199 34.3606 84.6573 34.6388 85.4502 34.6388C86.372 34.6388 87.0901 34.2802 87.6041 33.5753C88.118 32.8581 88.3716 31.9243 88.3716 30.7619ZM105.025 32.0295C105.025 33.328 104.573 34.3853 103.669 35.1953C102.678 36.0857 101.285 36.5309 99.5087 36.5309C97.8681 36.5309 96.5499 36.2156 95.5528 35.5787L96.1161 33.5444C97.1873 34.1813 98.3694 34.4966 99.6509 34.4966C100.573 34.4966 101.291 34.2864 101.805 33.8721C102.319 33.4578 102.579 32.9013 102.579 32.2088C102.579 31.5905 102.363 31.0711 101.942 30.6444C101.52 30.2239 100.821 29.8282 99.8371 29.4696C97.1626 28.4741 95.8251 27.0148 95.8251 25.1042C95.8251 23.8551 96.2956 22.8287 97.2427 22.0311C98.1838 21.2334 99.4346 20.8315 100.994 20.8315C102.381 20.8315 103.539 21.0727 104.461 21.5549L103.848 23.546C102.981 23.0761 102.01 22.8473 100.914 22.8473C100.053 22.8473 99.3726 23.0575 98.8893 23.4779C98.4809 23.8551 98.2766 24.3127 98.2766 24.8569C98.2766 25.4566 98.5122 25.9575 98.9828 26.347C99.3913 26.7057 100.127 27.1014 101.199 27.5219C102.511 28.0536 103.477 28.6657 104.096 29.3769C104.715 30.0879 105.025 30.9721 105.025 32.0295ZM113.134 27.1447H110.435V32.4809C110.435 33.8412 110.911 34.5151 111.865 34.5151C112.304 34.5151 112.664 34.4781 112.955 34.4039L113.023 36.2589C112.54 36.4382 111.909 36.5309 111.122 36.5309C110.157 36.5309 109.401 36.2341 108.856 35.6467C108.312 35.0593 108.039 34.0699 108.039 32.6849V27.1447H106.436V25.3144H108.039V23.2987L110.442 22.5752V25.3144H113.14L113.134 27.1447ZM125.274 30.7186C125.274 32.4067 124.791 33.7979 123.825 34.88C122.816 35.9991 121.473 36.5557 119.795 36.5557C118.179 36.5557 116.892 36.0177 115.932 34.9542C114.973 33.8845 114.496 32.5303 114.496 30.9041C114.496 29.1975 114.992 27.8063 115.982 26.718C116.973 25.6297 118.303 25.0918 119.981 25.0918C121.597 25.0918 122.897 25.6297 123.875 26.6995C124.803 27.7321 125.274 29.0739 125.274 30.7186ZM122.736 30.7743C122.736 29.7664 122.519 28.9007 122.079 28.1835C121.566 27.3116 120.835 26.8726 119.882 26.8726C118.904 26.8726 118.149 27.3116 117.641 28.1835C117.202 28.9069 116.985 29.7849 116.985 30.8237C116.985 31.8316 117.202 32.6973 117.641 33.4207C118.167 34.2925 118.91 34.7316 119.863 34.7316C120.798 34.7316 121.529 34.2864 122.061 33.4022C122.513 32.654 122.736 31.7821 122.736 30.7743ZM133.229 27.46C132.975 27.4167 132.715 27.392 132.455 27.392C131.594 27.392 130.932 27.7135 130.462 28.3628C130.053 28.9378 129.849 29.6613 129.849 30.5331V36.3021H127.404V28.7709C127.404 27.6146 127.385 26.4645 127.335 25.3082H129.465L129.551 27.4105H129.619C129.88 26.6871 130.282 26.1059 130.846 25.6669C131.353 25.2835 131.978 25.0794 132.616 25.0794C132.845 25.0794 133.043 25.098 133.229 25.1227V27.46ZM144.168 30.2858C144.174 30.6568 144.143 31.0278 144.081 31.3926H136.739C136.764 32.4809 137.123 33.3094 137.804 33.8845C138.422 34.3977 139.221 34.6512 140.206 34.6512C141.295 34.6512 142.286 34.4781 143.177 34.1318L143.561 35.826C142.521 36.2774 141.289 36.5062 139.871 36.5062C138.163 36.5062 136.825 36.0053 135.847 35.0037C134.876 34.0019 134.386 32.654 134.386 30.9659C134.386 29.3088 134.838 27.9299 135.749 26.8293C136.696 25.6545 137.983 25.0671 139.599 25.0671C141.184 25.0671 142.384 25.6545 143.202 26.8293C143.839 27.763 144.168 28.9131 144.168 30.2858ZM141.834 29.6551C141.852 28.9317 141.692 28.3071 141.357 27.7753C140.936 27.0952 140.28 26.7551 139.407 26.7551C138.609 26.7551 137.959 27.089 137.457 27.7506C137.048 28.2762 136.807 28.9131 136.732 29.6489L141.834 29.6551Z" fill="white"/>
<path d="M55.8844 15.6685C55.2034 15.6685 54.6153 15.6375 54.1262 15.5819V8.20521C54.8134 8.10008 55.5068 8.04441 56.2001 8.05061C59.0044 8.05061 60.2983 9.42947 60.2983 11.674C60.2921 14.2648 58.7692 15.6685 55.8844 15.6685ZM56.2991 8.99668C55.9215 8.99668 55.5996 9.02141 55.3334 9.07701V14.6791C55.4758 14.7039 55.7544 14.71 56.1444 14.71C57.9829 14.71 59.0292 13.6651 59.0292 11.7111C59.023 9.96128 58.0759 8.99668 56.2991 8.99668ZM64.3221 15.7241C62.7435 15.7241 61.7159 14.5431 61.7159 12.9416C61.7159 11.2721 62.7621 10.0849 64.4088 10.0849C65.9688 10.0849 67.0152 11.2103 67.0152 12.855C67.0152 14.5431 65.9379 15.7241 64.3221 15.7241ZM64.3654 10.9629C63.4988 10.9629 62.9416 11.7729 62.9416 12.9107C62.9416 14.0237 63.5112 14.8337 64.3531 14.8337C65.2012 14.8337 65.7646 13.968 65.7646 12.8859C65.7707 11.7853 65.2136 10.9629 64.3654 10.9629ZM76.0285 10.1962L74.3385 15.6004H73.2365L72.537 13.2569C72.3635 12.6819 72.2153 12.1007 72.1039 11.5133H72.0792C71.9924 12.1007 71.8249 12.6943 71.6453 13.2569L70.9025 15.6004H69.7885L68.1973 10.1962H69.4354L70.0481 12.7623C70.191 13.3744 70.3144 13.9495 70.4139 14.4998H70.4386C70.5253 14.0422 70.6735 13.4795 70.8844 12.7747L71.652 10.1962H72.6298L73.3667 12.719C73.5462 13.3311 73.6884 13.9309 73.7999 14.4998H73.8306C73.9113 13.9433 74.0288 13.3559 74.1963 12.719L74.8524 10.1962H76.0285ZM82.2625 15.6004H81.0617V12.4964C81.0617 11.538 80.696 11.0619 79.9718 11.0619C79.2603 11.0619 78.771 11.674 78.771 12.3851V15.6004H77.5703V11.742C77.5703 11.2659 77.5576 10.7527 77.5269 10.1962H78.5855L78.6409 11.0309H78.6716C78.994 10.4559 79.6501 10.0849 80.3869 10.0849C81.5196 10.0849 82.2685 10.9506 82.2685 12.3665L82.2625 15.6004ZM85.5744 15.6004H84.3736V7.71667H85.5744V15.6004ZM89.9635 15.7241C88.385 15.7241 87.3571 14.5431 87.3571 12.9416C87.3571 11.2721 88.4037 10.0849 90.0503 10.0849C91.6101 10.0849 92.6567 11.2103 92.6567 12.855C92.6567 14.5431 91.5734 15.7241 89.9635 15.7241ZM90.0069 10.9629C89.1399 10.9629 88.5832 11.7729 88.5832 12.9107C88.5832 14.0237 89.1526 14.8337 89.9942 14.8337C90.8425 14.8337 91.4059 13.968 91.4059 12.8859C91.4059 11.7853 90.8552 10.9629 90.0069 10.9629ZM97.3983 15.6004L97.3115 14.9759H97.2808C96.9157 15.4767 96.3771 15.7179 95.6963 15.7179C94.7238 15.7179 94.037 15.0377 94.037 14.1288C94.037 12.7932 95.1943 12.1069 97.2 12.1069V12.0079C97.2 11.2968 96.8229 10.9382 96.08 10.9382C95.5474 10.9382 95.0769 11.0743 94.6684 11.3401L94.4268 10.5487C94.9287 10.2395 95.5534 10.0787 96.2843 10.0787C97.6953 10.0787 98.4134 10.8207 98.4134 12.3109V14.3019C98.4134 14.8461 98.4381 15.2727 98.4942 15.5942L97.3983 15.6004ZM97.2314 12.9107C95.8938 12.9107 95.2257 13.2322 95.2257 13.9989C95.2257 14.5678 95.5721 14.8461 96.0487 14.8461C96.6621 14.8461 97.2314 14.3823 97.2314 13.7454V12.9107ZM104.239 15.6004L104.184 14.7347H104.152C103.806 15.3902 103.224 15.7241 102.413 15.7241C101.107 15.7241 100.141 14.5802 100.141 12.9663C100.141 11.2783 101.144 10.0849 102.512 10.0849C103.236 10.0849 103.75 10.3261 104.035 10.8207H104.059V7.71667H105.26V14.1411C105.26 14.6605 105.273 15.1552 105.304 15.5942H104.239V15.6004ZM104.065 12.4222C104.065 11.6678 103.564 11.0186 102.797 11.0186C101.905 11.0186 101.36 11.8101 101.36 12.9169C101.36 14.0051 101.924 14.7533 102.772 14.7533C103.527 14.7533 104.065 14.0979 104.065 13.3188V12.4222ZM112.9 15.7241C111.321 15.7241 110.293 14.5431 110.293 12.9416C110.293 11.2721 111.339 10.0849 112.987 10.0849C114.546 10.0849 115.592 11.2103 115.592 12.855C115.592 14.5431 114.516 15.7241 112.9 15.7241ZM112.943 10.9629C112.076 10.9629 111.519 11.7729 111.519 12.9107C111.519 14.0237 112.089 14.8337 112.931 14.8337C113.779 14.8337 114.342 13.968 114.342 12.8859C114.348 11.7853 113.791 10.9629 112.943 10.9629ZM122.062 15.6004H120.86V12.4964C120.86 11.538 120.495 11.0619 119.771 11.0619C119.059 11.0619 118.57 11.674 118.57 12.3851V15.6004H117.369V11.742C117.369 11.2659 117.357 10.7527 117.326 10.1962H118.384L118.44 11.0309H118.471C118.793 10.4559 119.449 10.0849 120.186 10.0849C121.319 10.0849 122.068 10.9506 122.068 12.3665V15.6004H122.062ZM130.147 11.0989H128.822V13.7207C128.822 14.3885 129.051 14.7224 129.521 14.7224C129.732 14.7224 129.911 14.6977 130.054 14.6667L130.085 15.5757C129.85 15.6623 129.54 15.7117 129.15 15.7117C128.202 15.7117 127.633 15.1923 127.633 13.8196V11.0928H126.841V10.19H127.633V9.20067L128.816 8.84207V10.19H130.141L130.147 11.0989ZM136.517 15.6004H135.315V12.5211C135.315 11.5565 134.95 11.0681 134.226 11.0681C133.601 11.0681 133.025 11.4885 133.025 12.348V15.6066H131.824V7.71667H133.025V10.9629H133.05C133.428 10.3755 133.979 10.0849 134.678 10.0849C135.823 10.0849 136.523 10.9753 136.523 12.3851L136.517 15.6004ZM143.035 13.1889H139.426C139.451 14.2092 140.126 14.7904 141.129 14.7904C141.661 14.7904 142.156 14.7039 142.589 14.5369L142.776 15.3716C142.262 15.5942 141.661 15.7055 140.961 15.7055C139.271 15.7055 138.269 14.6358 138.269 12.9849C138.269 11.3277 139.296 10.0849 140.825 10.0849C142.206 10.0849 143.073 11.1051 143.073 12.651C143.085 12.8241 143.073 13.0096 143.035 13.1889ZM141.933 12.3295C141.933 11.4947 141.513 10.9073 140.745 10.9073C140.052 10.9073 139.507 11.5071 139.432 12.3295H141.933Z" fill="white"/>
</g>
<defs>
<clipPath id="clip0_1580_14561">
<rect width="163.525" height="48" fill="white"/>
</clipPath>
</defs>
</svg>
