<svg width="164" height="48" viewBox="0 0 164 48" fill="none" xmlns="http://www.w3.org/2000/svg">
<rect x="0.546265" width="162.545" height="48" rx="6" fill="#0085FB"/>
<path d="M58.4793 12.5704C58.4793 13.4889 58.2494 14.2927 57.6747 14.8667C56.9849 15.5556 56.1803 15.9001 55.1458 15.9001C54.1112 15.9001 53.3066 15.5556 52.6169 14.8667C51.9272 14.1778 51.5823 13.3741 51.5823 12.3408C51.5823 11.3075 51.9272 10.5038 52.6169 9.81486C53.3066 9.12599 54.1112 8.78152 55.1458 8.78152C55.6056 8.78152 56.0654 8.89632 56.5251 9.12599C56.9849 9.35559 57.3298 9.58526 57.5597 9.92966L56.9849 10.5037C56.5251 9.92966 55.9504 9.70006 55.1458 9.70006C54.456 9.70006 53.7664 9.92966 53.3066 10.5037C52.7318 10.963 52.5019 11.6519 52.5019 12.4556C52.5019 13.2593 52.7318 13.9482 53.3066 14.4075C53.8813 14.8667 54.456 15.2111 55.1458 15.2111C55.9504 15.2111 56.5251 14.9815 57.0999 14.4075C57.4448 14.063 57.6747 13.6037 57.6747 13.0297H55.1458V12.226H58.4793C58.4793 12.226 58.4793 12.3408 58.4793 12.5704Z" fill="white" stroke="white" stroke-width="0.2" stroke-miterlimit="10"/>
<path d="M63.7673 9.70006H60.6636V11.8815H63.5373V12.6853H60.6636V14.8667H63.7673V15.6704H59.744V8.78152H63.7673V9.70006Z" fill="white" stroke="white" stroke-width="0.2" stroke-miterlimit="10"/>
<path d="M67.5614 15.6703H66.6415V9.5852H64.6873V8.78146H69.515V9.5852H67.5614V15.6703Z" fill="white" stroke="white" stroke-width="0.2" stroke-miterlimit="10"/>
<path d="M72.8492 15.6704V8.78152H73.7683V15.6704H72.8492Z" fill="white" stroke="white" stroke-width="0.2" stroke-miterlimit="10"/>
<path d="M77.6751 15.6704H76.756V9.58526H74.8017V8.78152H79.5146V9.58526H77.5603V15.6704H77.6751Z" fill="white" stroke="white" stroke-width="0.2" stroke-miterlimit="10"/>
<path d="M88.5961 14.8667C87.9066 15.5556 87.1017 15.9001 86.0671 15.9001C85.0326 15.9001 84.2283 15.5556 83.5382 14.8667C82.8487 14.1778 82.5036 13.3741 82.5036 12.3408C82.5036 11.3075 82.8487 10.5038 83.5382 9.81486C84.2283 9.12599 85.0326 8.78152 86.0671 8.78152C87.1017 8.78152 87.9066 9.12599 88.5961 9.81486C89.2856 10.5038 89.6306 11.3075 89.6306 12.3408C89.6306 13.2593 89.2856 14.1778 88.5961 14.8667ZM84.2283 14.2927C84.6882 14.7519 85.3776 15.0963 86.0671 15.0963C86.7573 15.0963 87.4467 14.8667 87.9066 14.2927C88.3665 13.8334 88.7109 13.1445 88.7109 12.3408C88.7109 11.5371 88.4813 10.8482 87.9066 10.3889C87.4467 9.92966 86.7573 9.58526 86.0671 9.58526C85.3776 9.58526 84.6882 9.81486 84.2283 10.3889C83.7684 10.8482 83.4233 11.5371 83.4233 12.3408C83.4233 13.0297 83.6536 13.7186 84.2283 14.2927Z" fill="white" stroke="white" stroke-width="0.2" stroke-miterlimit="10"/>
<path d="M90.8961 15.6703V8.78146H91.9307L95.2639 14.1777V12.8V8.78146H96.1837V15.6703H95.2639L91.7004 10.0445V11.4222V15.6703H90.8961Z" fill="white" stroke="white" stroke-width="0.2" stroke-miterlimit="10"/>
<path d="M82.2744 25.774C79.5158 25.774 77.3319 27.8407 77.3319 30.7111C77.3319 33.4666 79.5158 35.6481 82.2744 35.6481C85.0329 35.6481 87.2175 33.5814 87.2175 30.7111C87.2175 27.8407 85.0329 25.774 82.2744 25.774ZM82.2744 33.5814C80.7799 33.5814 79.5158 32.3185 79.5158 30.5963C79.5158 28.874 80.7799 27.6111 82.2744 27.6111C83.7688 27.6111 85.0329 28.7592 85.0329 30.5963C85.0329 32.4333 83.7688 33.5814 82.2744 33.5814ZM71.5838 25.774C68.8252 25.774 66.6413 27.8407 66.6413 30.7111C66.6413 33.4666 68.8252 35.6481 71.5838 35.6481C74.3431 35.6481 76.527 33.5814 76.527 30.7111C76.527 27.8407 74.3431 25.774 71.5838 25.774ZM71.5838 33.5814C70.0901 33.5814 68.8252 32.3185 68.8252 30.5963C68.8252 28.874 70.0901 27.6111 71.5838 27.6111C73.0782 27.6111 74.3431 28.7592 74.3431 30.5963C74.3431 32.4333 73.0782 33.5814 71.5838 33.5814ZM58.8247 27.2666V29.3333H63.7675C63.6526 30.4815 63.1928 31.4 62.618 31.974C61.9283 32.6629 60.7788 33.4666 58.8247 33.4666C55.721 33.4666 53.422 31.0555 53.422 27.9556C53.422 24.8556 55.836 22.4444 58.8247 22.4444C60.434 22.4444 61.6984 23.1333 62.618 23.937L64.1124 22.4444C62.8479 21.2963 61.2386 20.3778 58.9396 20.3778C54.8014 20.3778 51.238 23.8222 51.238 27.9556C51.238 32.0888 54.8014 35.5333 58.9396 35.5333C61.2386 35.5333 62.8479 34.8444 64.2273 33.3518C65.6067 31.974 66.0665 30.0222 66.0665 28.5296C66.0665 28.0704 66.0665 27.6111 65.9515 27.2666H58.8247ZM111.012 28.874C110.552 27.7259 109.402 25.774 106.874 25.774C104.345 25.774 102.276 27.7259 102.276 30.7111C102.276 33.4666 104.345 35.6481 107.104 35.6481C109.287 35.6481 110.667 34.2704 111.127 33.4666L109.518 32.3185C108.943 33.1222 108.253 33.6962 107.104 33.6962C105.954 33.6962 105.264 33.237 104.689 32.2037L111.242 29.4481L111.012 28.874ZM104.345 30.4815C104.345 28.6444 105.839 27.6111 106.874 27.6111C107.678 27.6111 108.483 28.0704 108.713 28.6444L104.345 30.4815ZM98.942 35.1888H101.126V20.837H98.942V35.1888ZM95.4939 26.8074C94.9186 26.2333 93.9995 25.6592 92.8495 25.6592C90.436 25.6592 88.1366 27.8407 88.1366 30.5963C88.1366 33.3518 90.3212 35.4185 92.8495 35.4185C93.9995 35.4185 94.9186 34.8444 95.3784 34.2704H95.4939V34.9592C95.4939 36.7962 94.4594 37.8296 92.8495 37.8296C91.5853 37.8296 90.6656 36.9111 90.436 36.1074L88.5965 36.9111C89.1711 38.174 90.5508 39.7814 92.9649 39.7814C95.4939 39.7814 97.563 38.2888 97.563 34.7296V26.0037H95.4939V26.8074ZM92.9649 33.5814C91.4705 33.5814 90.2057 32.3185 90.2057 30.5963C90.2057 28.874 91.4705 27.6111 92.9649 27.6111C94.4594 27.6111 95.6087 28.874 95.6087 30.5963C95.6087 32.3185 94.4594 33.5814 92.9649 33.5814ZM121.013 20.837H115.84V35.1888H118.024V29.7926H121.013C123.426 29.7926 125.725 28.0704 125.725 25.3148C125.725 22.5592 123.426 20.837 121.013 20.837ZM121.127 27.8407H118.024V22.9037H121.127C122.737 22.9037 123.656 24.2815 123.656 25.3148C123.542 26.463 122.622 27.8407 121.127 27.8407ZM134.347 25.774C132.737 25.774 131.128 26.463 130.553 27.9556L132.507 28.7592C132.967 27.9556 133.657 27.7259 134.462 27.7259C135.611 27.7259 136.646 28.4148 136.76 29.563V29.6778C136.416 29.4481 135.496 29.1037 134.576 29.1037C132.507 29.1037 130.438 30.2518 130.438 32.3185C130.438 34.2704 132.162 35.5333 134.002 35.5333C135.496 35.5333 136.186 34.8444 136.76 34.1556H136.875V35.3037H138.944V29.7926C138.715 27.1518 136.76 25.774 134.347 25.774ZM134.117 33.5814C133.427 33.5814 132.393 33.237 132.393 32.3185C132.393 31.1704 133.657 30.8259 134.691 30.8259C135.611 30.8259 136.071 31.0556 136.646 31.2852C136.416 32.663 135.266 33.5814 134.117 33.5814ZM146.186 26.0037L143.773 32.2037H143.658L141.129 26.0037H138.829L142.623 34.7296L140.439 39.5518H142.623L148.485 26.0037H146.186ZM126.875 35.1888H129.059V20.837H126.875V35.1888Z" fill="white"/>
<path d="M15.3742 38.0593C14.9144 37.8297 14.6845 37.2556 14.6845 36.6815C14.6845 36.5667 14.6845 36.3371 14.6845 36.2223C14.6845 27.726 14.6845 19.2297 14.6845 10.8482C14.6845 10.3889 14.7994 10.0445 14.9144 9.58526C15.0294 9.35559 15.2593 9.12599 15.4892 8.89639C20.432 13.8334 25.2599 18.7704 30.0877 23.7075C25.1449 28.3 20.3171 33.1223 15.3742 38.0593Z" fill="white"/>
<path d="M34.9144 18.6556C33.535 20.0334 32.0407 21.4111 30.6613 22.9037C26.0633 18.1963 21.3504 13.4889 16.7524 8.78149C16.7524 8.78149 16.7524 8.66669 16.8673 8.66669C22.8447 11.9963 28.8221 15.326 34.9144 18.6556Z" fill="white"/>
<path d="M16.7524 38.0592C21.3504 33.4666 26.0633 28.8741 30.6613 24.2815C31.9257 25.5444 33.3052 26.8074 34.7995 28.1851C28.8221 31.5148 22.8447 34.8444 16.8673 38.0592H16.7524Z" fill="white"/>
<path d="M35.6049 27.7259C34.1106 26.3481 32.7312 24.9703 31.2369 23.5926C32.7312 22.1 34.2256 20.6074 35.7199 19.1148C36.1797 19.3444 36.6395 19.5741 37.0993 19.9185C38.2488 20.6074 39.5133 21.1815 40.6628 21.8703C41.0076 21.9851 41.2375 22.2148 41.4674 22.5592C41.9272 23.1333 41.9272 23.7074 41.4674 24.2815C41.2375 24.5111 41.0076 24.7407 40.6628 24.8555C39.0535 25.8889 37.3292 26.8074 35.6049 27.7259Z" fill="white"/>
</svg>
