<svg width="144" height="22" viewBox="0 0 144 22" fill="none" xmlns="http://www.w3.org/2000/svg">
<g opacity="0.4">
<path d="M0.86 14.5V7.52H3.86C4.50667 7.52 5.00667 7.71 5.36 8.09C5.71333 8.47 5.89 8.98 5.89 9.62C5.89 10.26 5.71333 10.77 5.36 11.15C5.00667 11.53 4.50667 11.72 3.86 11.72H1.99V14.5H0.86ZM1.99 10.73H3.79C4.07667 10.73 4.3 10.6567 4.46 10.51C4.62 10.3567 4.7 10.14 4.7 9.86V9.38C4.7 9.1 4.62 8.88667 4.46 8.74C4.3 8.58667 4.07667 8.51 3.79 8.51H1.99V10.73ZM10.3295 14.62C9.8762 14.62 9.46286 14.5433 9.08953 14.39C8.72286 14.23 8.4062 14 8.13953 13.7C7.87953 13.3933 7.6762 13.0167 7.52953 12.57C7.38953 12.1167 7.31953 11.5967 7.31953 11.01C7.31953 10.4233 7.38953 9.90667 7.52953 9.46C7.6762 9.00667 7.87953 8.63 8.13953 8.33C8.4062 8.02333 8.72286 7.79333 9.08953 7.64C9.46286 7.48 9.8762 7.4 10.3295 7.4C10.7829 7.4 11.1929 7.48 11.5595 7.64C11.9329 7.79333 12.2495 8.02333 12.5095 8.33C12.7762 8.63 12.9795 9.00667 13.1195 9.46C13.2662 9.90667 13.3395 10.4233 13.3395 11.01C13.3395 11.5967 13.2662 12.1167 13.1195 12.57C12.9795 13.0167 12.7762 13.3933 12.5095 13.7C12.2495 14 11.9329 14.23 11.5595 14.39C11.1929 14.5433 10.7829 14.62 10.3295 14.62ZM10.3295 13.61C10.5962 13.61 10.8395 13.5633 11.0595 13.47C11.2862 13.3767 11.4762 13.2433 11.6295 13.07C11.7895 12.89 11.9129 12.6733 11.9995 12.42C12.0862 12.1667 12.1295 11.88 12.1295 11.56V10.46C12.1295 10.14 12.0862 9.85333 11.9995 9.6C11.9129 9.34667 11.7895 9.13333 11.6295 8.96C11.4762 8.78 11.2862 8.64333 11.0595 8.55C10.8395 8.45667 10.5962 8.41 10.3295 8.41C10.0562 8.41 9.80953 8.45667 9.58953 8.55C9.36953 8.64333 9.17953 8.78 9.01953 8.96C8.8662 9.13333 8.7462 9.34667 8.65953 9.6C8.57286 9.85333 8.52953 10.14 8.52953 10.46V11.56C8.52953 11.88 8.57286 12.1667 8.65953 12.42C8.7462 12.6733 8.8662 12.89 9.01953 13.07C9.17953 13.2433 9.36953 13.3767 9.58953 13.47C9.80953 13.5633 10.0562 13.61 10.3295 13.61ZM16.181 14.5L14.531 7.52H15.681L16.391 10.88L16.881 13.2H16.911L17.471 10.88L18.301 7.52H19.561L20.381 10.88L20.931 13.19H20.961L21.471 10.88L22.201 7.52H23.311L21.591 14.5H20.321L19.431 10.89L18.911 8.77H18.891L18.361 10.89L17.451 14.5H16.181ZM24.9088 14.5V7.52H29.3788V8.52H26.0388V10.46H29.0688V11.46H26.0388V13.5H29.3788V14.5H24.9088ZM32.4666 14.5H31.3366V7.52H34.3466C34.9732 7.52 35.4666 7.71 35.8266 8.09C36.1866 8.46333 36.3666 8.97333 36.3666 9.62C36.3666 10.12 36.2499 10.5367 36.0166 10.87C35.7899 11.1967 35.4532 11.4267 35.0066 11.56L36.5166 14.5H35.2566L33.8566 11.68H32.4666V14.5ZM34.2666 10.73C34.5532 10.73 34.7766 10.6567 34.9366 10.51C35.0966 10.3567 35.1766 10.14 35.1766 9.86V9.38C35.1766 9.1 35.0966 8.88667 34.9366 8.74C34.7766 8.58667 34.5532 8.51 34.2666 8.51H32.4666V10.73H34.2666ZM38.3893 14.5V7.52H42.8593V8.52H39.5193V10.46H42.5493V11.46H39.5193V13.5H42.8593V14.5H38.3893ZM44.817 7.52H47.287C47.7337 7.52 48.137 7.59333 48.497 7.74C48.8637 7.88667 49.1737 8.10667 49.427 8.4C49.687 8.68667 49.887 9.05 50.027 9.49C50.167 9.92333 50.237 10.43 50.237 11.01C50.237 11.59 50.167 12.1 50.027 12.54C49.887 12.9733 49.687 13.3367 49.427 13.63C49.1737 13.9167 48.8637 14.1333 48.497 14.28C48.137 14.4267 47.7337 14.5 47.287 14.5H44.817V7.52ZM47.287 13.5C47.807 13.5 48.227 13.3367 48.547 13.01C48.867 12.6833 49.027 12.2033 49.027 11.57V10.45C49.027 9.81667 48.867 9.33667 48.547 9.01C48.227 8.68333 47.807 8.52 47.287 8.52H45.947V13.5H47.287ZM55.0065 7.52H58.0965C58.6765 7.52 59.1298 7.68333 59.4565 8.01C59.7898 8.33667 59.9565 8.77333 59.9565 9.32C59.9565 9.58 59.9198 9.80333 59.8465 9.99C59.7732 10.17 59.6798 10.32 59.5665 10.44C59.4532 10.5533 59.3232 10.64 59.1765 10.7C59.0298 10.7533 58.8865 10.7867 58.7465 10.8V10.86C58.8865 10.8667 59.0398 10.9 59.2065 10.96C59.3798 11.02 59.5398 11.1167 59.6865 11.25C59.8332 11.3767 59.9565 11.5433 60.0565 11.75C60.1565 11.95 60.2065 12.1967 60.2065 12.49C60.2065 12.77 60.1598 13.0333 60.0665 13.28C59.9798 13.5267 59.8565 13.74 59.6965 13.92C59.5365 14.1 59.3465 14.2433 59.1265 14.35C58.9065 14.45 58.6665 14.5 58.4065 14.5H55.0065V7.52ZM56.1365 13.53H58.0765C58.3698 13.53 58.5998 13.4533 58.7665 13.3C58.9332 13.1467 59.0165 12.9267 59.0165 12.64V12.3C59.0165 12.0133 58.9332 11.7933 58.7665 11.64C58.5998 11.4867 58.3698 11.41 58.0765 11.41H56.1365V13.53ZM56.1365 10.47H57.8865C58.1665 10.47 58.3832 10.4 58.5365 10.26C58.6898 10.1133 58.7665 9.90667 58.7665 9.64V9.32C58.7665 9.05333 58.6898 8.85 58.5365 8.71C58.3832 8.56333 58.1665 8.49 57.8865 8.49H56.1365V10.47ZM63.387 14.5V11.75L60.987 7.52H62.277L63.977 10.63H64.007L65.697 7.52H66.937L64.517 11.73V14.5H63.387Z" fill="white"/>
<path d="M87.1045 11.9642V11.9642C87.1045 11.5908 86.7964 11.2856 86.4137 11.2856H82.0681C81.688 11.2856 81.3774 11.5883 81.3774 11.9642V11.9642C81.3774 12.3377 81.6855 12.6428 82.0681 12.6428H86.4137C86.7939 12.6403 87.1045 12.3377 87.1045 11.9642Z" fill="white"/>
<path d="M113.36 13.6625H110.999C110.909 13.6625 110.857 13.5665 110.902 13.4926L113.654 9.12804C113.674 9.09849 113.686 9.06647 113.701 9.03445C113.701 9.03198 113.704 9.02952 113.704 9.02706C113.714 9.00243 113.721 8.9778 113.726 8.95317C113.731 8.93346 113.739 8.91376 113.741 8.89405C113.744 8.88666 113.744 8.87681 113.744 8.86942C113.749 8.83987 113.754 8.81031 113.754 8.77829C113.754 8.42854 113.465 8.14282 113.112 8.14282H109.715C109.379 8.14282 109.08 8.38666 109.048 8.71671C109.01 9.09602 109.311 9.41376 109.687 9.41376H111.753C111.842 9.41376 111.895 9.50982 111.85 9.58371L109.115 13.9187C109.097 13.9482 109.085 13.9778 109.07 14.0074C109.025 14.0936 108.998 14.1896 108.998 14.2931V14.2931C108.998 14.6428 109.284 14.9285 109.64 14.9285H113.358C113.711 14.9285 114 14.6428 114 14.2931C114.002 13.9482 113.714 13.6625 113.36 13.6625Z" fill="white"/>
<path d="M96.2605 8.08973C96.258 8.08973 96.2555 8.08973 96.2555 8.08726C96.248 8.08726 96.243 8.08479 96.2355 8.08231C96.2305 8.08231 96.223 8.08231 96.218 8.07984C96.213 8.07984 96.2105 8.07984 96.2055 8.07984C96.0528 8.06747 95.6999 8.06747 95.5146 8.08973V8.09221C95.1667 8.12931 94.7863 8.24555 94.5209 8.44341C94.4058 8.52998 94.3007 8.62396 94.2056 8.72537C94.1955 8.37663 93.9102 8.09715 93.5548 8.09715C93.1943 8.09715 92.904 8.38653 92.904 8.74021V14.3521C92.904 14.4411 92.9215 14.5252 92.9566 14.6044C93.0567 14.8369 93.2895 15.0001 93.5598 15.0001C93.9202 15.0001 94.2131 14.7107 94.2131 14.3546V14.315V13.7115V11.2926C94.2131 10.7238 94.3683 10.2539 94.6761 9.89771C94.9289 9.60586 95.2093 9.43768 95.5271 9.38821C95.6848 9.36842 95.845 9.37337 95.845 9.37337H96.1654C96.5259 9.37337 96.8187 9.084 96.8187 8.72784V8.72784C96.8162 8.40137 96.5759 8.13673 96.2605 8.08973Z" fill="white"/>
<path d="M89.962 9.18137C90.2819 8.74361 90.4719 8.20693 90.4719 7.62325V7.62325C90.4719 6.14922 89.2646 4.95466 87.7748 4.95466H87.4049V4.66529C87.4049 4.29678 87.1024 4 86.7325 4C86.3601 4 86.0601 4.29926 86.0601 4.66529V4.95466H85.3752V4.95713H84.9428C84.5829 4.95713 84.2929 5.2465 84.2929 5.60016C84.2929 5.95631 84.5854 6.2432 84.9428 6.2432H85.3752V6.24567H87.7648C88.5122 6.24567 89.1171 6.84419 89.1171 7.58368V7.58615C89.1171 8.30585 88.5422 8.90684 87.8198 8.92168C87.6873 8.92415 87.2874 8.92168 87.2874 8.92168C87.2849 8.92168 87.2799 8.92168 87.2774 8.92168H87.2724V8.92168C86.875 8.93157 86.5575 9.2704 86.6 9.67601C86.6375 10.0297 86.9575 10.2894 87.3174 10.2894H88.6822C88.8221 10.2894 88.9646 10.2993 89.0996 10.3339C89.832 10.5243 90.3744 11.1822 90.3744 11.9687C90.3744 12.9011 89.6095 13.6579 88.6672 13.6579H84.5479V13.6579H83.773C83.4081 13.6579 83.0831 13.9225 83.0481 14.2811C83.0081 14.6917 83.3356 15.0379 83.743 15.0379H86.0601V15.3347C86.0601 15.7032 86.3626 16 86.7325 16C87.1049 16 87.4049 15.7007 87.4049 15.3347V15.0379H87.9898C87.9898 15.0379 87.9898 15.0379 87.9923 15.0379H88.7272C90.4344 15.0379 91.8166 13.6678 91.8166 11.981C91.8191 10.7296 91.0543 9.65128 89.962 9.18137Z" fill="white"/>
<path d="M84.4947 9.60704C84.4947 9.23358 84.1849 8.92847 83.8001 8.92847H80.6946C80.3123 8.92847 80 9.23114 80 9.60704C80 9.9805 80.3098 10.2856 80.6946 10.2856H83.8001C84.1849 10.2856 84.4947 9.9805 84.4947 9.60704Z" fill="white"/>
<path d="M83.1593 8.28561H86.2649C86.6471 8.28561 86.9595 7.98294 86.9595 7.60704C86.9595 7.23358 86.6496 6.92847 86.2649 6.92847H83.1593C82.7771 6.92847 82.4648 7.23114 82.4648 7.60704C82.4648 7.9805 82.7746 8.28561 83.1593 8.28561Z" fill="white"/>
<path fill-rule="evenodd" clip-rule="evenodd" d="M101.63 8.82876C102.074 9.26533 102.328 9.80057 102.388 10.4271V10.432C102.418 10.7181 102.386 11.2386 102.386 11.2386C102.386 11.6603 102.037 12.0032 101.608 12.0032H98.5289C98.4662 12.0032 98.416 12.0525 98.416 12.1142V12.2992C98.416 12.7777 98.5691 13.1501 98.8877 13.4338C99.2064 13.7174 99.6254 13.8605 100.135 13.8605C100.27 13.8605 100.416 13.8457 100.549 13.821C100.787 13.7667 101.061 13.6459 101.251 13.5028C101.263 13.4954 101.273 13.488 101.284 13.4806C101.295 13.4732 101.305 13.4658 101.317 13.4584C101.319 13.4572 101.322 13.4553 101.324 13.4535C101.327 13.4516 101.329 13.4498 101.332 13.4486C101.354 13.4338 101.379 13.419 101.402 13.4066C101.403 13.4054 101.405 13.4048 101.407 13.4042C101.409 13.4035 101.411 13.4029 101.412 13.4017L101.48 13.3721C101.485 13.3721 101.49 13.3696 101.495 13.3672C101.52 13.3573 101.545 13.3499 101.573 13.345C101.575 13.345 101.578 13.3443 101.581 13.3437C101.584 13.3431 101.588 13.3425 101.59 13.3425C101.615 13.3376 101.643 13.3351 101.67 13.3351H101.678H101.68C101.944 13.3351 102.167 13.5028 102.248 13.7371C102.248 13.7421 102.25 13.747 102.253 13.7519C102.255 13.7643 102.258 13.7741 102.26 13.784C102.265 13.7963 102.268 13.8062 102.27 13.8185C102.278 13.8506 102.28 13.8851 102.28 13.9172V13.9271V13.9394C102.28 13.9616 102.278 13.9863 102.275 14.0085C102.273 14.0134 102.273 14.0159 102.273 14.0208C102.268 14.0479 102.26 14.0751 102.253 14.0997C102.251 14.1034 102.25 14.1065 102.249 14.1096C102.248 14.1127 102.246 14.1158 102.245 14.1195C102.24 14.1392 102.232 14.1589 102.222 14.1762C102.222 14.1777 102.221 14.1794 102.22 14.1813C102.217 14.1856 102.214 14.1908 102.212 14.1959C102.2 14.2206 102.185 14.2428 102.17 14.265C102.072 14.4179 101.891 14.5659 101.613 14.7238C101.206 14.9556 100.697 15.0715 100.1 15.0715C99.2265 15.0715 98.5038 14.8101 97.9493 14.297C97.3922 13.784 97.1087 13.0983 97.1087 12.2646V10.8094C97.1087 10.0694 97.3747 9.42319 97.8991 8.88549C98.4235 8.34532 99.0634 8.07153 99.8011 8.07153C100.501 8.07153 101.118 8.32559 101.63 8.82876ZM100.893 10.9104C101.031 10.9104 101.143 10.8019 101.143 10.6662V10.5799C101.143 10.1877 101.013 9.93121 100.747 9.63522C100.484 9.34417 100.17 9.20358 99.7885 9.20358C99.4121 9.20358 99.0985 9.33431 98.825 9.60562C98.5515 9.87694 98.4185 10.2025 98.4185 10.5996V10.6613C98.4185 10.797 98.5314 10.908 98.6694 10.908L100.893 10.9104Z" fill="white"/>
<path fill-rule="evenodd" clip-rule="evenodd" d="M107.72 8.82876C108.164 9.26533 108.417 9.80057 108.478 10.4271V10.432C108.508 10.7181 108.475 11.2386 108.475 11.2386C108.475 11.6603 108.126 12.0032 107.697 12.0032H104.619C104.556 12.0032 104.506 12.0525 104.506 12.1142V12.2992C104.506 12.7777 104.659 13.1501 104.977 13.4338C105.296 13.7174 105.715 13.8605 106.224 13.8605C106.36 13.8605 106.505 13.8457 106.638 13.821C106.877 13.7667 107.15 13.6459 107.341 13.5028C107.352 13.4954 107.363 13.488 107.374 13.4806C107.384 13.4732 107.395 13.4658 107.406 13.4584C107.409 13.4572 107.411 13.4553 107.414 13.4535C107.416 13.4516 107.419 13.4498 107.421 13.4486C107.444 13.4338 107.469 13.419 107.492 13.4066C107.493 13.4054 107.495 13.4048 107.497 13.4042C107.498 13.4035 107.5 13.4029 107.502 13.4017L107.569 13.3721C107.574 13.3721 107.579 13.3696 107.584 13.3672C107.609 13.3573 107.635 13.3499 107.662 13.345C107.665 13.345 107.668 13.3443 107.671 13.3437C107.674 13.3431 107.677 13.3425 107.68 13.3425C107.705 13.3376 107.732 13.3351 107.76 13.3351H107.768H107.77C108.034 13.3351 108.257 13.5028 108.337 13.7371C108.337 13.7421 108.34 13.747 108.342 13.7519C108.345 13.7643 108.347 13.7741 108.35 13.784C108.355 13.7963 108.357 13.8062 108.36 13.8185C108.367 13.8506 108.37 13.8851 108.37 13.9172V13.9271V13.9394C108.37 13.9616 108.367 13.9863 108.365 14.0085C108.362 14.0134 108.362 14.0159 108.362 14.0208C108.357 14.0479 108.35 14.0751 108.342 14.0997C108.341 14.1034 108.34 14.1065 108.338 14.1096C108.337 14.1127 108.336 14.1158 108.335 14.1195C108.33 14.1392 108.322 14.1589 108.312 14.1762C108.311 14.1777 108.31 14.1794 108.309 14.1813C108.307 14.1856 108.304 14.1908 108.302 14.1959C108.289 14.2206 108.274 14.2428 108.259 14.265C108.161 14.4179 107.981 14.5659 107.702 14.7238C107.296 14.9556 106.786 15.0715 106.189 15.0715C105.316 15.0715 104.593 14.8101 104.039 14.297C103.482 13.784 103.198 13.0983 103.198 12.2646V10.8094C103.198 10.0694 103.464 9.42319 103.989 8.88549C104.513 8.34532 105.153 8.07153 105.891 8.07153C106.591 8.07153 107.208 8.32559 107.72 8.82876ZM106.982 10.9104C107.12 10.9104 107.233 10.8019 107.233 10.6662V10.5799C107.233 10.1877 107.103 9.93121 106.837 9.63522C106.573 9.34417 106.26 9.20358 105.878 9.20358C105.502 9.20358 105.188 9.33431 104.915 9.60562C104.641 9.87694 104.508 10.2025 104.508 10.5996V10.6613C104.508 10.797 104.621 10.908 104.759 10.908L106.982 10.9104Z" fill="white"/>
<path d="M121.13 15.168C120.309 15.168 119.609 15.0187 119.03 14.72C118.461 14.4213 117.971 14.02 117.56 13.516L118.652 12.494C118.997 12.914 119.375 13.2313 119.786 13.446C120.206 13.6607 120.682 13.768 121.214 13.768C121.839 13.768 122.311 13.628 122.628 13.348C122.945 13.068 123.104 12.69 123.104 12.214C123.104 11.8313 122.992 11.528 122.768 11.304C122.544 11.08 122.147 10.912 121.578 10.8L120.71 10.646C119.758 10.4687 119.044 10.156 118.568 9.708C118.092 9.26 117.854 8.644 117.854 7.86C117.854 7.43067 117.933 7.04333 118.092 6.698C118.26 6.34333 118.489 6.04933 118.778 5.816C119.077 5.57333 119.436 5.38667 119.856 5.256C120.276 5.12533 120.747 5.06 121.27 5.06C122.007 5.06 122.647 5.19067 123.188 5.452C123.729 5.704 124.191 6.07267 124.574 6.558L123.468 7.538C123.216 7.21133 122.908 6.95 122.544 6.754C122.18 6.558 121.727 6.46 121.186 6.46C120.626 6.46 120.192 6.572 119.884 6.796C119.576 7.02 119.422 7.34667 119.422 7.776C119.422 8.18667 119.548 8.49467 119.8 8.7C120.052 8.896 120.444 9.04533 120.976 9.148L121.844 9.33C122.824 9.51667 123.538 9.834 123.986 10.282C124.443 10.73 124.672 11.346 124.672 12.13C124.672 12.5873 124.593 13.0027 124.434 13.376C124.275 13.7493 124.042 14.0713 123.734 14.342C123.435 14.6033 123.067 14.8087 122.628 14.958C122.189 15.098 121.69 15.168 121.13 15.168ZM126.571 5.228H130.029C130.655 5.228 131.219 5.33067 131.723 5.536C132.237 5.74133 132.671 6.04933 133.025 6.46C133.389 6.86133 133.669 7.37 133.865 7.986C134.061 8.59267 134.159 9.302 134.159 10.114C134.159 10.926 134.061 11.64 133.865 12.256C133.669 12.8627 133.389 13.3713 133.025 13.782C132.671 14.1833 132.237 14.4867 131.723 14.692C131.219 14.8973 130.655 15 130.029 15H126.571V5.228ZM130.029 13.6C130.757 13.6 131.345 13.3713 131.793 12.914C132.241 12.4567 132.465 11.7847 132.465 10.898V9.33C132.465 8.44333 132.241 7.77133 131.793 7.314C131.345 6.85667 130.757 6.628 130.029 6.628H128.153V13.6H130.029ZM139.054 10.436L137.71 11.976V15H136.128V5.228H137.71V10.184H137.766L139.166 8.406L141.798 5.228H143.646L140.16 9.344L143.926 15H142.022L139.054 10.436Z" fill="white"/>
</g>
</svg>
