<svg version="1.2" xmlns="http://www.w3.org/2000/svg" viewBox="0 0 144 22" width="144" height="22"><style>.a{fill:#fff}</style><g style="opacity:.4"><path fill-rule="evenodd" class="a" d="m4.9 14.5v-7h3q0.9 0 1.5 0.6 0.5 0.6 0.5 1.5 0 1-0.5 1.6-0.6 0.5-1.5 0.5h-1.9v2.8zm1.1-3.8h1.8q0.5 0 0.7-0.2 0.2-0.2 0.2-0.6v-0.5q0-0.4-0.2-0.7-0.2-0.2-0.7-0.2h-1.8zm8.4 3.9q-0.7 0-1.3-0.2-0.5-0.3-0.9-0.7-0.4-0.5-0.6-1.2-0.3-0.6-0.3-1.5 0-0.9 0.3-1.6 0.2-0.6 0.6-1.1 0.4-0.5 0.9-0.7 0.6-0.2 1.3-0.2 0.6 0 1.2 0.2 0.5 0.2 0.9 0.7 0.4 0.5 0.6 1.1 0.3 0.7 0.3 1.6 0 0.9-0.3 1.5-0.2 0.7-0.6 1.2-0.4 0.4-0.9 0.7-0.6 0.2-1.2 0.2zm0-1q0.4 0 0.7-0.2 0.3-0.1 0.6-0.4 0.2-0.2 0.3-0.6 0.2-0.4 0.2-0.9v-1.1q0-0.4-0.2-0.8-0.1-0.4-0.3-0.7-0.3-0.2-0.6-0.4-0.3-0.1-0.7-0.1-0.5 0-0.8 0.1-0.3 0.2-0.6 0.4-0.2 0.3-0.3 0.7-0.1 0.4-0.1 0.8v1.1q0 0.5 0.1 0.9 0.1 0.4 0.3 0.6 0.3 0.3 0.6 0.5 0.3 0.1 0.8 0.1zm5.8 0.9l-1.6-7h1.1l0.7 3.4 0.5 2.3 0.6-2.3 0.8-3.4h1.3l0.8 3.4 0.6 2.3 0.5-2.3 0.7-3.4h1.1l-1.7 7h-1.2l-0.9-3.6-0.6-2.2-0.5 2.2-0.9 3.6zm8.7 0v-7h4.5v1h-3.4v1.9h3.1v1h-3.1v2.1h3.4v1zm7.5 0h-1.1v-7h3q1 0 1.5 0.6 0.5 0.5 0.5 1.5 0 0.8-0.3 1.2-0.4 0.5-1 0.7l1.5 3h-1.3l-1.4-2.8h-1.4zm1.8-3.8q0.5 0 0.7-0.2 0.2-0.3 0.2-0.7v-0.5q0-0.4-0.2-0.6-0.2-0.2-0.7-0.2h-1.8v2.2zm4.2 3.8v-7h4.4v1h-3.3v1.9h3v1h-3v2.1h3.3v1zm6.5-7h2.4q0.7 0 1.2 0.2 0.6 0.2 1 0.7 0.4 0.4 0.6 1 0.2 0.7 0.2 1.6 0 0.8-0.2 1.5-0.2 0.6-0.6 1.1-0.4 0.4-1 0.6-0.5 0.3-1.2 0.3h-2.4zm2.4 5.9q0.8 0 1.3-0.5 0.5-0.4 0.5-1.4v-1.1q0-1-0.5-1.5-0.5-0.4-1.3-0.4h-1.3v4.9zm7.7-5.9h3.1q0.9 0 1.4 0.4 0.5 0.5 0.5 1.4 0 0.3-0.2 0.6-0.1 0.3-0.2 0.5-0.2 0.1-0.4 0.2-0.2 0.1-0.5 0.1v0.1q0.3 0 0.5 0.1 0.3 0.1 0.5 0.3 0.2 0.2 0.4 0.5 0.1 0.3 0.1 0.7 0 0.4-0.1 0.8-0.2 0.4-0.4 0.7-0.2 0.2-0.6 0.4-0.3 0.1-0.7 0.1h-3.4zm1.1 6h2q0.4 0 0.7-0.2 0.2-0.2 0.2-0.6v-0.4q0-0.4-0.2-0.6-0.3-0.3-0.7-0.3h-2zm0-3h1.8q0.4 0 0.6-0.2 0.3-0.3 0.3-0.7v-0.3q0-0.4-0.3-0.6-0.2-0.2-0.6-0.2h-1.8zm7.3 4v-2.7l-2.4-4.3h1.3l1.7 3.2 1.7-3.2h1.2l-2.4 4.3v2.7z"/><path class="a" d="m82.1 12c0-0.4-0.3-0.7-0.7-0.7h-4.3c-0.4 0-0.7 0.3-0.7 0.7 0 0.3 0.3 0.6 0.7 0.6h4.3c0.4 0 0.7-0.3 0.7-0.6z"/><path class="a" d="m108.4 13.7h-2.4c-0.1 0-0.1-0.1-0.1-0.2l2.8-4.4q0 0 0-0.1 0 0 0 0 0 0 0 0 0-0.1 0-0.1 0 0 0 0 0.1-0.1 0.1-0.1c0-0.4-0.3-0.7-0.7-0.7h-3.4c-0.3 0-0.6 0.3-0.7 0.6 0 0.4 0.3 0.7 0.7 0.7h2.1c0 0 0.1 0.1 0 0.2l-2.7 4.3q0 0.1 0 0.1-0.1 0.1-0.1 0.3c0 0.3 0.3 0.6 0.6 0.6h3.8c0.3 0 0.6-0.3 0.6-0.6 0-0.4-0.3-0.6-0.6-0.6z"/><path class="a" d="m91.3 8.1q0 0 0 0-0.1 0-0.1 0 0 0 0 0 0 0 0 0c-0.1 0-0.5 0-0.7 0-0.3 0-0.7 0.1-1 0.3q-0.2 0.2-0.3 0.3c0-0.3-0.3-0.6-0.6-0.6-0.4 0-0.7 0.3-0.7 0.6v5.7q0 0.1 0.1 0.2c0.1 0.2 0.3 0.4 0.6 0.4 0.3 0 0.6-0.3 0.6-0.6v-0.1-0.6-2.4q0-0.9 0.5-1.4 0.4-0.4 0.8-0.5c0.2 0 0.3 0 0.3 0h0.4c0.3 0 0.6-0.3 0.6-0.7 0-0.3-0.2-0.6-0.5-0.6z"/><path class="a" d="m85 9.2c0.3-0.5 0.5-1 0.5-1.6 0-1.5-1.2-2.6-2.7-2.6h-0.4v-0.3c0-0.4-0.3-0.7-0.7-0.7-0.3 0-0.6 0.3-0.6 0.7v0.3h-0.7-0.5c-0.3 0-0.6 0.2-0.6 0.6 0 0.4 0.3 0.6 0.6 0.6h0.5 2.4c0.7 0 1.3 0.6 1.3 1.4 0 0.7-0.6 1.3-1.3 1.3-0.1 0-0.5 0-0.5 0q0 0 0 0c-0.4 0-0.7 0.4-0.7 0.8 0 0.3 0.4 0.6 0.7 0.6h1.4q0.2 0 0.4 0c0.7 0.2 1.3 0.9 1.3 1.7 0 0.9-0.8 1.7-1.7 1.7h-4.2-0.7c-0.4 0-0.7 0.2-0.8 0.6 0 0.4 0.3 0.7 0.7 0.7h2.4v0.3c0 0.4 0.3 0.7 0.6 0.7 0.4 0 0.7-0.3 0.7-0.7v-0.3h0.6q0 0 0 0h0.7c1.7 0 3.1-1.3 3.1-3 0-1.3-0.7-2.3-1.8-2.8z"/><path class="a" d="m79.5 9.6c0-0.4-0.3-0.7-0.7-0.7h-3.1c-0.4 0-0.7 0.3-0.7 0.7 0 0.4 0.3 0.7 0.7 0.7h3.1c0.4 0 0.7-0.3 0.7-0.7z"/><path class="a" d="m78.2 8.3h3.1c0.3 0 0.7-0.3 0.7-0.7 0-0.4-0.4-0.7-0.7-0.7h-3.1c-0.4 0-0.7 0.3-0.7 0.7 0 0.4 0.3 0.7 0.7 0.7z"/><path fill-rule="evenodd" class="a" d="m96.6 8.8q0.7 0.7 0.8 1.6c0 0.3 0 0.8 0 0.8 0 0.5-0.4 0.8-0.8 0.8h-3.1q-0.1 0-0.1 0.1v0.2q0 0.7 0.5 1.1 0.5 0.5 1.2 0.5 0.2 0 0.4-0.1c0.3 0 0.6-0.2 0.8-0.3q0 0 0 0 0 0 0 0 0 0 0 0 0 0 0-0.1 0.1 0 0.1 0 0 0 0 0 0 0 0 0h0.1q0 0 0 0 0 0 0.1-0.1 0 0 0 0 0 0 0 0 0 0 0.1 0c0.2 0 0.5 0.2 0.5 0.4q0 0 0.1 0.1 0 0 0 0 0 0 0 0 0 0.1 0 0.1 0 0.1 0 0.1 0 0 0 0 0 0.1 0 0.1 0 0-0.1 0 0 0 0 0 0 0 0 0.1 0 0 0 0 0 0 0 0 0 0 0 0.1-0.2 0.2-0.6 0.4-0.6 0.4-1.5 0.4-1.3 0-2.2-0.8-0.8-0.8-0.8-2v-1.5q0-1.1 0.8-1.9 0.8-0.8 1.9-0.8 1.1 0 1.8 0.7zm-0.7 2.1c0.1 0 0.2-0.1 0.2-0.2v-0.1c0-0.4-0.1-0.7-0.4-1q-0.3-0.4-0.9-0.4-0.6 0-1 0.4-0.4 0.4-0.4 1v0.1c0 0.1 0.1 0.2 0.3 0.2z"/><path fill-rule="evenodd" class="a" d="m102.7 8.8q0.7 0.7 0.8 1.6c0 0.3 0 0.8 0 0.8 0 0.5-0.4 0.8-0.8 0.8h-3.1q-0.1 0-0.1 0.1v0.2q0 0.7 0.5 1.1 0.5 0.5 1.2 0.5 0.2 0 0.4-0.1c0.3 0 0.6-0.2 0.7-0.3q0.1 0 0.1 0 0 0 0 0 0 0 0 0 0 0 0-0.1 0.1 0 0.1 0 0 0 0 0 0 0 0 0h0.1q0 0 0 0 0 0 0.1-0.1 0 0 0 0 0 0 0 0 0 0 0.1 0c0.2 0 0.5 0.2 0.5 0.4q0 0 0 0.1 0 0 0 0 0.1 0 0.1 0 0 0.1 0 0.1 0 0.1 0 0.1 0 0 0 0 0 0.1-0.1 0.1 0 0 0 0 0 0 0 0 0 0 0 0.1 0 0 0 0 0 0 0 0 0 0 0 0.1-0.2 0.2-0.6 0.4-0.6 0.4-1.5 0.4-1.3 0-2.2-0.8-0.8-0.8-0.8-2v-1.5q0-1.1 0.8-1.9 0.8-0.8 1.9-0.8 1 0 1.8 0.7zm-0.7 2.1c0.1 0 0.2-0.1 0.2-0.2v-0.1c0-0.4-0.1-0.7-0.4-1q-0.4-0.4-0.9-0.4-0.6 0-1 0.4-0.4 0.4-0.4 1v0.1c0 0.1 0.1 0.2 0.3 0.2z"/><path fill-rule="evenodd" class="a" d="m116.1 15.2q-1.2 0-2.1-0.5-0.8-0.4-1.4-1.2l1.1-1q0.5 0.6 1.1 0.9 0.6 0.4 1.4 0.4 1 0 1.4-0.5 0.5-0.4 0.5-1.1 0-0.6-0.3-0.9-0.4-0.3-1.2-0.5l-0.9-0.2q-1.4-0.2-2.1-0.9-0.7-0.7-0.7-1.8 0-0.7 0.2-1.2 0.2-0.5 0.7-0.9 0.4-0.3 1.1-0.5 0.6-0.2 1.4-0.2 1.1 0 1.9 0.4 0.8 0.3 1.4 1.1l-1.1 0.9q-0.4-0.5-1-0.7-0.5-0.3-1.3-0.3-0.9 0-1.3 0.3-0.5 0.3-0.5 1 0 0.6 0.4 0.9 0.4 0.3 1.2 0.4l0.8 0.2q1.5 0.3 2.2 1 0.7 0.7 0.7 1.8 0 0.7-0.3 1.3-0.2 0.5-0.7 0.9-0.4 0.4-1.1 0.7-0.6 0.2-1.5 0.2zm5.5-10h3.4q1 0 1.7 0.3 0.8 0.3 1.3 1 0.6 0.6 0.9 1.5 0.3 0.9 0.3 2.1 0 1.2-0.3 2.2-0.3 0.9-0.9 1.5-0.5 0.6-1.3 0.9-0.7 0.3-1.7 0.3h-3.4zm3.4 8.4q1.1 0 1.8-0.7 0.7-0.7 0.7-2v-1.6q0-1.3-0.7-2-0.7-0.7-1.8-0.7h-1.8v7zm9-3.2l-1.4 1.5v3.1h-1.5v-9.8h1.5v5h0.1l1.4-1.8 2.6-3.2h1.9l-3.5 4.1 3.7 5.7h-1.9z"/></g></svg>