<svg width="473" height="152" viewBox="0 0 473 152" fill="none" xmlns="http://www.w3.org/2000/svg">
<path fill-rule="evenodd" clip-rule="evenodd" d="M122.03 49.979C122.03 56.3744 119.998 62.255 116.575 67.0516C128.261 72.2005 136.444 84.0158 136.417 97.7281C136.417 116.21 121.629 131.223 103.365 131.223H95.5034H95.4767H89.2193V134.475C89.2193 138.486 86.0104 141.765 82.026 141.765C78.0683 141.765 74.8327 138.513 74.8327 134.475V131.223H50.0438C45.685 131.223 42.182 127.429 42.6098 122.931C42.9842 119.001 46.4605 116.102 50.3647 116.102H58.6544H102.723C112.805 116.102 120.988 107.809 120.988 97.5926C120.988 88.975 115.185 81.7666 107.35 79.6799C105.906 79.3005 104.381 79.1921 102.884 79.1921H88.2834C84.4327 79.1921 81.0098 76.3467 80.6087 72.4715C80.1541 68.0272 83.5502 64.3145 87.802 64.2061H87.8555H87.9625C87.9625 64.2061 92.241 64.2332 93.6583 64.2061C101.386 64.0435 107.537 57.4584 107.537 49.5725V49.5454C107.537 41.4426 101.066 34.8846 93.07 34.8846H67.5057V34.8575H62.8795C59.0555 34.8575 55.9268 31.714 55.9268 27.8116C55.9268 23.9364 59.0288 20.7658 62.8795 20.7658H67.5057V20.7387H74.8327V17.5681C74.8327 13.5573 78.0416 10.2783 82.026 10.2783C85.9837 10.2783 89.2193 13.5302 89.2193 17.5681V20.7387H93.177C109.115 20.7387 122.03 33.8277 122.03 49.979ZM183.958 55.0898C183.931 55.0898 183.905 55.0898 183.905 55.0627C183.841 55.0627 183.794 55.0458 183.738 55.0253C183.723 55.0199 183.707 55.0142 183.69 55.0085C183.637 55.0085 183.556 55.0085 183.503 54.9814H183.369C181.736 54.8459 177.96 54.8459 175.978 55.0898V55.1169C172.256 55.5234 168.186 56.7972 165.348 58.9652C164.116 59.9137 162.991 60.9435 161.974 62.0546C161.867 58.2335 158.814 55.1711 155.011 55.1711C151.156 55.1711 148.049 58.3419 148.049 62.2172V123.708C148.049 124.683 148.237 125.605 148.612 126.472C149.683 129.02 152.173 130.808 155.065 130.808C158.921 130.808 162.054 127.637 162.054 123.735V123.301V116.689V90.1848C162.054 83.9517 163.714 78.8026 167.008 74.9002C169.712 71.7023 172.712 69.8595 176.112 69.3175C177.799 69.1007 179.513 69.1549 179.513 69.1549H182.941C186.797 69.1549 189.93 65.9842 189.93 62.0817C189.903 58.5045 187.332 55.6048 183.958 55.0898ZM341.63 116.153H366.896C370.676 116.153 373.765 119.283 373.738 123.062C373.738 126.894 370.65 130.024 366.869 130.024H327.093C323.286 130.024 320.225 126.894 320.225 123.062C320.225 121.928 320.517 120.876 320.997 119.931C321.033 119.858 321.068 119.784 321.102 119.711L321.15 119.607C321.251 119.391 321.352 119.175 321.476 118.959L350.735 71.4602C351.214 70.6505 350.655 69.598 349.697 69.598H327.599C323.579 69.598 320.358 66.1165 320.757 61.9603C321.103 58.3439 324.298 55.6721 327.892 55.6721H364.233C368.014 55.6721 371.102 58.8027 371.102 62.635C371.102 62.9859 371.049 63.3098 370.996 63.6336C370.996 63.7146 370.996 63.8225 370.969 63.9035C370.951 64.0474 370.91 64.1914 370.869 64.3353L370.858 64.3718L370.841 64.4312C370.83 64.4712 370.819 64.5112 370.809 64.5512C370.756 64.8211 370.676 65.091 370.57 65.3609C370.57 65.3744 370.563 65.3878 370.557 65.4013L370.553 65.4088C370.551 65.4131 370.549 65.4173 370.547 65.4216C370.545 65.4283 370.543 65.4351 370.543 65.4418C370.507 65.5207 370.473 65.5997 370.438 65.6783L370.438 65.6785C370.319 65.9493 370.202 66.2164 370.037 66.4674L340.592 114.29C340.112 115.1 340.671 116.153 341.63 116.153ZM78.6164 90.1095C82.7098 90.1095 86.0059 93.4527 86.0059 97.5448C86.0059 101.637 82.6833 104.953 78.6164 104.98H32.1262C28.0327 104.98 24.7366 101.637 24.7366 97.5448C24.7366 93.426 28.0593 90.1095 32.1262 90.1095H78.6164ZM58.0847 71.7167C58.0847 67.6246 54.7704 64.2815 50.6542 64.2815H17.4305C13.3411 64.2815 10 67.5979 10 71.7167C10 75.8087 13.3143 79.1519 17.4305 79.1519H50.6542C54.7704 79.1519 58.0847 75.8087 58.0847 71.7167ZM77.0244 57.2372H43.8008C39.6846 57.2372 36.3702 53.894 36.3702 49.802C36.3702 45.6832 39.7113 42.3667 43.8008 42.3667H77.0244C81.1406 42.3667 84.455 45.7099 84.455 49.802C84.455 53.9208 81.1139 57.2372 77.0244 57.2372ZM241.405 63.1853C246.157 67.9689 248.868 73.8336 249.512 80.6983V80.7523C249.834 83.8873 249.485 89.5899 249.485 89.5899C249.485 94.2114 245.754 97.968 241.164 97.968H208.226C207.555 97.968 207.018 98.5085 207.018 99.1842V101.211C207.018 106.454 208.656 110.535 212.065 113.643C215.474 116.751 219.957 118.319 225.406 118.319C226.856 118.319 228.413 118.157 229.836 117.886C232.386 117.292 235.312 115.967 237.352 114.4C237.473 114.319 237.587 114.238 237.701 114.157L237.701 114.156C237.815 114.075 237.929 113.994 238.05 113.913C238.077 113.9 238.103 113.88 238.13 113.86L238.13 113.859C238.157 113.839 238.184 113.819 238.211 113.805C238.453 113.643 238.721 113.481 238.963 113.346C238.976 113.332 238.996 113.326 239.016 113.319C239.036 113.312 239.057 113.305 239.07 113.292L239.795 112.968C239.848 112.968 239.902 112.941 239.956 112.913C240.224 112.805 240.493 112.724 240.788 112.67C240.797 112.67 240.806 112.67 240.816 112.668C240.824 112.667 240.832 112.666 240.84 112.665C240.848 112.663 240.856 112.662 240.863 112.66L240.882 112.657L240.901 112.653C240.906 112.652 240.911 112.651 240.916 112.65C240.924 112.649 240.932 112.647 240.94 112.646C240.953 112.644 240.965 112.643 240.976 112.643C241.244 112.589 241.54 112.562 241.835 112.562H241.915H241.942C244.761 112.562 247.15 114.4 248.009 116.967C248.009 117.021 248.036 117.076 248.063 117.13C248.089 117.265 248.116 117.373 248.143 117.481C248.197 117.616 248.224 117.724 248.251 117.859C248.331 118.211 248.358 118.589 248.358 118.94V119.048V119.184C248.358 119.427 248.331 119.697 248.304 119.94C248.277 119.994 248.277 120.021 248.277 120.075C248.224 120.373 248.143 120.67 248.063 120.94C248.056 120.959 248.05 120.976 248.044 120.993C248.039 121.005 248.035 121.017 248.03 121.029L248.022 121.048L248.015 121.067L248.006 121.089L247.996 121.117C247.991 121.129 247.987 121.143 247.982 121.156C247.928 121.373 247.848 121.589 247.741 121.778C247.732 121.794 247.722 121.813 247.71 121.834C247.684 121.881 247.652 121.938 247.633 121.994C247.499 122.265 247.338 122.508 247.177 122.751C246.13 124.427 244.197 126.048 241.217 127.778C236.869 130.318 231.419 131.589 225.031 131.589C215.689 131.589 207.958 128.724 202.026 123.102C196.066 117.481 193.033 109.968 193.033 100.833V84.8873C193.033 76.7795 195.878 69.6986 201.489 63.8069C207.099 57.8881 213.944 54.8882 221.836 54.8882C229.326 54.8882 235.929 57.6719 241.405 63.1853ZM233.514 85.9958C234.99 85.9958 236.198 84.8066 236.198 83.3202V82.3743C236.198 78.0771 234.802 75.2664 231.957 72.0232C229.138 68.8341 225.783 67.2936 221.703 67.2936C217.676 67.2936 214.321 68.726 211.395 71.6989C208.469 74.6718 207.046 78.2392 207.046 82.5905V83.2661C207.046 84.7526 208.254 85.9687 209.73 85.9687L233.514 85.9958ZM314.659 80.6983C314.015 73.8336 311.304 67.9689 306.553 63.1853C301.076 57.6719 294.473 54.8882 286.983 54.8882C279.091 54.8882 272.246 57.8881 266.636 63.8069C261.025 69.6986 258.18 76.7795 258.18 84.8873V100.833C258.18 109.968 261.213 117.481 267.173 123.102C273.105 128.724 280.836 131.589 290.178 131.589C296.567 131.589 302.016 130.318 306.365 127.778C309.344 126.048 311.277 124.427 312.324 122.751L312.324 122.751C312.485 122.507 312.646 122.264 312.78 121.994C312.799 121.938 312.831 121.881 312.857 121.834C312.869 121.813 312.88 121.794 312.888 121.778C312.995 121.589 313.076 121.373 313.129 121.156C313.143 121.116 313.156 121.082 313.17 121.048C313.183 121.015 313.196 120.981 313.21 120.94C313.29 120.67 313.371 120.373 313.425 120.075C313.425 120.021 313.425 119.994 313.451 119.94C313.478 119.697 313.505 119.427 313.505 119.184V119.048V118.94C313.505 118.589 313.478 118.211 313.398 117.859C313.371 117.724 313.344 117.616 313.29 117.481C313.263 117.373 313.237 117.265 313.21 117.13C313.183 117.076 313.156 117.021 313.156 116.967C312.297 114.4 309.908 112.562 307.089 112.562H307.063H306.982C306.687 112.562 306.391 112.589 306.123 112.643C306.096 112.643 306.063 112.65 306.029 112.657C305.996 112.663 305.962 112.67 305.935 112.67C305.64 112.724 305.371 112.805 305.103 112.913C305.049 112.941 304.996 112.968 304.942 112.968L304.217 113.292C304.211 113.298 304.203 113.303 304.194 113.307C304.184 113.312 304.174 113.315 304.163 113.319C304.143 113.326 304.123 113.332 304.11 113.346C303.868 113.481 303.6 113.643 303.358 113.805C303.342 113.813 303.326 113.824 303.31 113.835C303.299 113.843 303.288 113.851 303.278 113.859C303.251 113.88 303.224 113.9 303.197 113.913C303.077 113.994 302.964 114.074 302.851 114.155L302.85 114.155L302.848 114.157C302.734 114.238 302.62 114.319 302.499 114.4C300.459 115.967 297.533 117.292 294.983 117.886C293.56 118.157 292.003 118.319 290.554 118.319C285.104 118.319 280.621 116.751 277.212 113.643C273.803 110.535 272.166 106.454 272.166 101.211V99.1842C272.166 98.5085 272.702 97.968 273.374 97.968H306.311C310.901 97.968 314.633 94.2114 314.633 89.5899C314.633 89.5899 314.981 83.8873 314.659 80.7523V80.6983ZM301.345 83.3202C301.345 84.8066 300.138 85.9958 298.661 85.9958L274.878 85.9687C273.401 85.9687 272.193 84.7526 272.193 83.2661V82.5905C272.193 78.2392 273.616 74.6718 276.542 71.6989C279.468 68.726 282.823 67.2936 286.85 67.2936C290.93 67.2936 294.286 68.8341 297.104 72.0232C299.95 75.2664 301.345 78.0771 301.345 82.3743V83.3202ZM423.647 40.7082C426.389 35.4647 433.493 35.4998 436.509 40.0743L436.51 40.0747L436.521 40.0918L436.521 40.0922L436.635 40.2649C443.057 50.0039 449.552 59.8521 454.424 69.0695C459.252 78.2026 463.001 87.6287 463.001 96.3845C463.001 114.492 448.322 129.17 430.215 129.17C412.402 129.17 400.28 117.613 397.462 102.18C396.818 98.6483 399.158 95.2628 402.689 94.618C406.221 93.9733 409.606 96.3134 410.251 99.8449C411.998 109.414 418.994 116.17 430.215 116.17C441.143 116.17 450.001 107.312 450.001 96.3845C450.001 90.9535 447.553 83.8889 442.931 75.1448C439.661 68.9578 435.557 62.384 431.073 55.4844C430.544 56.6824 430.001 57.9224 429.448 59.1871L429.445 59.1946L429.444 59.1966L429.406 59.2826C428.949 60.3272 428.485 61.3884 428.015 62.4564C426.342 66.2568 424.531 70.3013 422.784 73.6379C419.652 80.9939 412.356 86.1509 403.857 86.1509C392.5 86.1509 383.293 76.9443 383.293 65.5874C383.293 56.9796 389.995 46.0591 397.103 34.4766L397.106 34.471C398.245 32.6154 399.394 30.7428 400.528 28.8601C402.069 26.3012 405.785 26.1855 407.422 28.6844C412.106 35.839 416.493 42.779 419.637 49.2025C421.035 46.0587 422.409 43.0741 423.647 40.7082ZM410.952 68.2117C411.255 67.3942 411.42 66.5101 411.42 65.5874C411.42 63.6396 410.541 60.0777 407.687 54.3644C406.659 52.3058 405.472 50.1549 404.152 47.9056C402.771 50.2231 401.492 52.4504 400.332 54.6526C397.18 60.634 396.293 63.9875 396.293 65.5874C396.293 69.7646 399.679 73.1509 403.857 73.1509C406.165 73.1509 408.232 72.1169 409.619 70.4869C410.025 69.8737 410.471 69.1081 410.952 68.2117Z" fill="url(#paint0_linear_3914_7256)"/>
<defs>
<linearGradient id="paint0_linear_3914_7256" x1="10" y1="10.2783" x2="463.001" y2="10.2783" gradientUnits="userSpaceOnUse">
<stop stop-color="#009CF9"/>
<stop offset="0.534375" stop-color="#0089FC"/>
<stop offset="1" stop-color="#0078FD"/>
</linearGradient>
</defs>
</svg>
