<svg width="473" height="153" viewBox="0 0 473 153" fill="none" xmlns="http://www.w3.org/2000/svg">
<path fill-rule="evenodd" clip-rule="evenodd" d="M122.03 50.4926C122.03 56.8881 119.998 62.7687 116.575 67.5653C128.261 72.7141 136.444 84.5295 136.417 98.2418C136.417 116.724 121.629 131.737 103.365 131.737H95.5034H95.4767H89.2193V134.989C89.2193 138.999 86.0104 142.278 82.026 142.278C78.0683 142.278 74.8327 139.026 74.8327 134.989V131.737H50.0438C45.685 131.737 42.182 127.943 42.6098 123.444C42.9842 119.515 46.4605 116.615 50.3647 116.615H58.6544H102.723C112.805 116.615 120.988 108.323 120.988 98.1063C120.988 89.4887 115.185 82.2802 107.35 80.1936C105.906 79.8142 104.381 79.7058 102.884 79.7058H88.2834C84.4327 79.7058 81.0098 76.8604 80.6087 72.9851C80.1541 68.5408 83.5502 64.8282 87.802 64.7198H87.8555H87.9625C87.9625 64.7198 92.241 64.7469 93.6583 64.7198C101.386 64.5572 107.537 57.9721 107.537 50.0861V50.059C107.537 41.9563 101.066 35.3983 93.07 35.3983H67.5057V35.3712H62.8795C59.0555 35.3712 55.9268 32.2276 55.9268 28.3253C55.9268 24.4501 59.0288 21.2795 62.8795 21.2795H67.5057V21.2524H74.8327V18.0817C74.8327 14.071 78.0416 10.792 82.026 10.792C85.9837 10.792 89.2193 14.0439 89.2193 18.0817V21.2524H93.177C109.115 21.2524 122.03 34.3414 122.03 50.4926ZM183.958 55.6035C183.931 55.6035 183.905 55.6035 183.905 55.5764C183.841 55.5764 183.794 55.5594 183.738 55.5389C183.723 55.5335 183.707 55.5279 183.69 55.5222C183.637 55.5222 183.556 55.5222 183.503 55.4951H183.369C181.736 55.3596 177.96 55.3596 175.978 55.6035V55.6306C172.256 56.0371 168.186 57.3108 165.348 59.4789C164.116 60.4274 162.991 61.4572 161.974 62.5683C161.867 58.7472 158.814 55.6848 155.011 55.6848C151.156 55.6848 148.049 58.8556 148.049 62.7309V124.222C148.049 125.197 148.237 126.119 148.612 126.986C149.683 129.533 152.173 131.322 155.065 131.322C158.921 131.322 162.054 128.151 162.054 124.249V123.815V117.203V90.6984C162.054 84.4653 163.714 79.3163 167.008 75.4138C169.712 72.216 172.712 70.3732 176.112 69.8312C177.799 69.6144 179.513 69.6686 179.513 69.6686H182.941C186.797 69.6686 189.93 66.4978 189.93 62.5954C189.903 59.0182 187.332 56.1184 183.958 55.6035ZM341.63 116.666H366.896C370.676 116.666 373.765 119.797 373.738 123.575C373.738 127.408 370.65 130.538 366.869 130.538H327.093C323.286 130.538 320.225 127.408 320.225 123.575C320.225 122.442 320.517 121.389 320.997 120.445C321.033 120.371 321.068 120.298 321.102 120.225L321.15 120.121C321.251 119.905 321.352 119.689 321.476 119.473L350.735 71.9739C351.214 71.1642 350.655 70.1117 349.697 70.1117H327.599C323.579 70.1117 320.358 66.6302 320.757 62.474C321.103 58.8576 324.298 56.1858 327.892 56.1858H364.233C368.014 56.1858 371.102 59.3164 371.102 63.1487C371.102 63.4996 371.049 63.8234 370.996 64.1473C370.996 64.2282 370.996 64.3362 370.969 64.4172C370.951 64.5611 370.91 64.705 370.869 64.849L370.858 64.8855L370.841 64.9449C370.83 64.9849 370.819 65.0249 370.809 65.0649C370.756 65.3348 370.676 65.6046 370.57 65.8745C370.57 65.888 370.563 65.9015 370.557 65.915L370.553 65.9225C370.551 65.9267 370.549 65.931 370.547 65.9352C370.545 65.942 370.543 65.9487 370.543 65.9555C370.507 66.0344 370.473 66.1133 370.438 66.1919L370.438 66.1922C370.319 66.463 370.202 66.7301 370.037 66.981L340.592 114.804C340.112 115.614 340.671 116.666 341.63 116.666ZM78.6164 90.6232C82.7098 90.6232 86.0059 93.9664 86.0059 98.0584C86.0059 102.15 82.6833 105.467 78.6164 105.494H32.1262C28.0327 105.494 24.7366 102.15 24.7366 98.0584C24.7366 93.9396 28.0593 90.6232 32.1262 90.6232H78.6164ZM58.0847 72.2304C58.0847 68.1383 54.7704 64.7951 50.6542 64.7951H17.4305C13.3411 64.7951 10 68.1116 10 72.2304C10 76.3224 13.3143 79.6656 17.4305 79.6656H50.6542C54.7704 79.6656 58.0847 76.3224 58.0847 72.2304ZM77.0244 57.7509H43.8008C39.6846 57.7509 36.3702 54.4077 36.3702 50.3157C36.3702 46.1968 39.7113 42.8804 43.8008 42.8804H77.0244C81.1406 42.8804 84.455 46.2236 84.455 50.3157C84.455 54.4345 81.1139 57.7509 77.0244 57.7509ZM241.405 63.6989C246.157 68.4826 248.868 74.3473 249.512 81.2119V81.266C249.834 84.401 249.485 90.1035 249.485 90.1035C249.485 94.725 245.754 98.4817 241.164 98.4817H208.226C207.555 98.4817 207.018 99.0222 207.018 99.6979V101.725C207.018 106.968 208.656 111.049 212.065 114.157C215.474 117.265 219.957 118.832 225.406 118.832C226.856 118.832 228.413 118.67 229.836 118.4C232.386 117.805 235.312 116.481 237.352 114.914C237.473 114.833 237.587 114.751 237.701 114.67L237.701 114.67C237.815 114.589 237.929 114.508 238.05 114.427C238.077 114.414 238.103 114.393 238.13 114.373L238.13 114.373C238.157 114.353 238.184 114.333 238.211 114.319C238.453 114.157 238.721 113.995 238.963 113.86C238.976 113.846 238.996 113.839 239.016 113.833C239.036 113.826 239.057 113.819 239.07 113.806L239.795 113.481C239.848 113.481 239.902 113.454 239.956 113.427C240.224 113.319 240.493 113.238 240.788 113.184C240.797 113.184 240.806 113.183 240.816 113.182C240.824 113.181 240.832 113.18 240.84 113.178C240.848 113.177 240.856 113.176 240.863 113.174L240.882 113.17L240.901 113.167C240.906 113.166 240.911 113.165 240.916 113.164C240.924 113.162 240.932 113.161 240.94 113.16C240.953 113.158 240.965 113.157 240.976 113.157C241.244 113.103 241.54 113.076 241.835 113.076H241.915H241.942C244.761 113.076 247.15 114.914 248.009 117.481C248.009 117.535 248.036 117.589 248.063 117.643C248.089 117.778 248.116 117.886 248.143 117.995C248.197 118.13 248.224 118.238 248.251 118.373C248.331 118.724 248.358 119.103 248.358 119.454V119.562V119.697C248.358 119.94 248.331 120.211 248.304 120.454C248.277 120.508 248.277 120.535 248.277 120.589C248.224 120.886 248.143 121.184 248.063 121.454C248.056 121.473 248.05 121.49 248.044 121.506C248.039 121.519 248.035 121.531 248.03 121.543L248.022 121.562L248.015 121.581L248.006 121.603L247.996 121.63C247.991 121.643 247.987 121.656 247.982 121.67C247.928 121.886 247.848 122.103 247.741 122.292C247.732 122.308 247.722 122.327 247.71 122.348C247.684 122.395 247.652 122.451 247.633 122.508C247.499 122.778 247.338 123.021 247.177 123.265C246.13 124.94 244.197 126.562 241.217 128.292C236.869 130.832 231.419 132.102 225.031 132.102C215.689 132.102 207.958 129.237 202.026 123.616C196.066 117.995 193.033 110.481 193.033 101.346V85.401C193.033 77.2931 195.878 70.2123 201.489 64.3205C207.099 58.4018 213.944 55.4019 221.836 55.4019C229.326 55.4019 235.929 58.1856 241.405 63.6989ZM233.514 86.5094C234.99 86.5094 236.198 85.3203 236.198 83.8338V82.8879C236.198 78.5908 234.802 75.78 231.957 72.5369C229.138 69.3478 225.783 67.8073 221.703 67.8073C217.676 67.8073 214.321 69.2397 211.395 72.2126C208.469 75.1855 207.046 78.7529 207.046 83.1041V83.7798C207.046 85.2662 208.254 86.4824 209.73 86.4824L233.514 86.5094ZM314.659 81.2119C314.015 74.3473 311.304 68.4826 306.553 63.6989C301.076 58.1856 294.473 55.4019 286.983 55.4019C279.091 55.4019 272.246 58.4018 266.636 64.3205C261.025 70.2123 258.18 77.2931 258.18 85.401V101.346C258.18 110.481 261.213 117.995 267.173 123.616C273.105 129.237 280.836 132.102 290.178 132.102C296.567 132.102 302.016 130.832 306.365 128.292C309.344 126.562 311.277 124.94 312.324 123.265L312.324 123.264C312.485 123.021 312.646 122.778 312.78 122.508C312.799 122.451 312.831 122.395 312.857 122.348C312.869 122.327 312.88 122.308 312.888 122.292C312.995 122.103 313.076 121.886 313.129 121.67C313.143 121.63 313.156 121.596 313.17 121.562C313.183 121.528 313.196 121.494 313.21 121.454C313.29 121.184 313.371 120.886 313.425 120.589C313.425 120.535 313.425 120.508 313.451 120.454C313.478 120.211 313.505 119.94 313.505 119.697V119.562V119.454C313.505 119.103 313.478 118.724 313.398 118.373C313.371 118.238 313.344 118.13 313.29 117.995C313.263 117.886 313.237 117.778 313.21 117.643C313.183 117.589 313.156 117.535 313.156 117.481C312.297 114.914 309.908 113.076 307.089 113.076H307.063H306.982C306.687 113.076 306.391 113.103 306.123 113.157C306.096 113.157 306.063 113.164 306.029 113.17C305.996 113.177 305.962 113.184 305.935 113.184C305.64 113.238 305.371 113.319 305.103 113.427C305.049 113.454 304.996 113.481 304.942 113.481L304.217 113.806C304.211 113.812 304.203 113.817 304.194 113.821C304.184 113.826 304.174 113.829 304.163 113.833C304.143 113.839 304.123 113.846 304.11 113.86C303.868 113.995 303.6 114.157 303.358 114.319C303.342 114.327 303.326 114.338 303.31 114.349C303.299 114.357 303.288 114.365 303.278 114.373C303.251 114.393 303.224 114.414 303.197 114.427C303.077 114.508 302.964 114.588 302.851 114.669L302.85 114.669L302.848 114.67C302.734 114.751 302.62 114.833 302.499 114.914C300.459 116.481 297.533 117.805 294.983 118.4C293.56 118.67 292.003 118.832 290.554 118.832C285.104 118.832 280.621 117.265 277.212 114.157C273.803 111.049 272.166 106.968 272.166 101.725V99.6979C272.166 99.0222 272.702 98.4817 273.374 98.4817H306.311C310.901 98.4817 314.633 94.725 314.633 90.1035C314.633 90.1035 314.981 84.401 314.659 81.266V81.2119ZM301.345 83.8338C301.345 85.3203 300.138 86.5094 298.661 86.5094L274.878 86.4824C273.401 86.4824 272.193 85.2662 272.193 83.7798V83.1041C272.193 78.7529 273.616 75.1855 276.542 72.2126C279.468 69.2397 282.823 67.8073 286.85 67.8073C290.93 67.8073 294.286 69.3478 297.104 72.5369C299.95 75.78 301.345 78.5908 301.345 82.8879V83.8338ZM423.647 41.2219C426.389 35.9783 433.493 36.0134 436.509 40.588L436.51 40.5884L436.521 40.6055L436.521 40.6059L436.635 40.7786C443.057 50.5176 449.552 60.3658 454.424 69.5831C459.252 78.7162 463.001 88.1423 463.001 96.8981C463.001 115.005 448.322 129.684 430.215 129.684C412.402 129.684 400.28 118.126 397.462 102.693C396.818 99.162 399.158 95.7765 402.689 95.1317C406.221 94.4869 409.606 96.8271 410.251 100.359C411.998 109.928 418.994 116.684 430.215 116.684C441.143 116.684 450.001 107.826 450.001 96.8981C450.001 91.4671 447.553 84.4026 442.931 75.6585C439.661 69.4715 435.557 62.8977 431.073 55.9981C430.544 57.1961 430.001 58.4361 429.448 59.7008L429.445 59.7083L429.444 59.7103L429.406 59.7963C428.949 60.8409 428.485 61.9021 428.015 62.9701C426.342 66.7705 424.531 70.815 422.784 74.1516C419.652 81.5075 412.356 86.6646 403.857 86.6646C392.5 86.6646 383.293 77.458 383.293 66.1011C383.293 57.4932 389.995 46.5727 397.103 34.9902L397.106 34.9847C398.245 33.1291 399.394 31.2565 400.528 29.3738C402.069 26.8149 405.785 26.6992 407.422 29.1981C412.106 36.3526 416.493 43.2927 419.637 49.7161C421.035 46.5724 422.409 43.5878 423.647 41.2219ZM410.952 68.7254C411.255 67.9079 411.42 67.0238 411.42 66.1011C411.42 64.1533 410.541 60.5913 407.687 54.878C406.659 52.8195 405.472 50.6685 404.152 48.4193C402.771 50.7368 401.492 52.9641 400.332 55.1663C397.18 61.1477 396.293 64.5012 396.293 66.1011C396.293 70.2783 399.679 73.6646 403.857 73.6646C406.165 73.6646 408.232 72.6306 409.619 71.0006C410.025 70.3874 410.471 69.6218 410.952 68.7254Z" fill="white"/>
</svg>
